runtti_drawing.ufo
<glyph name="numbersign" format="2">
  <advance width="758"/>
  <unicode hex="0023"/>
  <outline>
    <contour>
      <point x="343" y="426" type="line"/>
      <point x="353" y="396" type="line"/>
      <point x="430" y="640" type="line"/>
      <point x="476" y="605" type="line"/>
      <point x="244" y="605" type="line"/>
      <point x="323" y="640" type="line"/>
      <point x="257" y="396" type="line"/>
      <point x="278" y="426" type="line"/>
      <point x="-8" y="429" type="line"/>
      <point x="107" y="470" type="line"/>
      <point x="54" y="278" type="line"/>
      <point x="3" y="337" type="line"/>
      <point x="258" y="341" type="line"/>
      <point x="248" y="363" type="line"/>
      <point x="204" y="213" type="line"/>
      <point x="225" y="229" type="line"/>
      <point x="-55" y="232" type="line"/>
      <point x="52" y="273" type="line"/>
      <point x="-2" y="81" type="line"/>
      <point x="-44" y="140" type="line"/>
      <point x="199" y="144" type="line"/>
      <point x="190" y="171" type="line"/>
      <point x="111" y="-73" type="line"/>
      <point x="66" y="-37" type="line"/>
      <point x="298" y="-37" type="line"/>
      <point x="218" y="-73" type="line"/>
      <point x="286" y="171" type="line"/>
      <point x="259" y="144" type="line"/>
      <point x="409" y="144" type="line"/>
      <point x="399" y="171" type="line"/>
      <point x="321" y="-73" type="line"/>
      <point x="276" y="-37" type="line"/>
      <point x="508" y="-37" type="line"/>
      <point x="428" y="-73" type="line"/>
      <point x="495" y="171" type="line"/>
      <point x="464" y="144" type="line"/>
      <point x="748" y="140" type="line"/>
      <point x="646" y="82" type="line"/>
      <point x="700" y="273" type="line"/>
      <point x="755" y="232" type="line"/>
      <point x="497" y="229" type="line"/>
      <point x="506" y="212" type="line"/>
      <point x="551" y="363" type="line"/>
      <point x="518" y="341" type="line"/>
      <point x="794" y="337" type="line"/>
      <point x="701" y="279" type="line"/>
      <point x="755" y="470" type="line"/>
      <point x="802" y="429" type="line"/>
      <point x="547" y="426" type="line"/>
      <point x="563" y="396" type="line"/>
      <point x="640" y="640" type="line"/>
      <point x="686" y="605" type="line"/>
      <point x="455" y="605" type="line"/>
      <point x="533" y="640" type="line"/>
      <point x="467" y="396" type="line"/>
      <point x="491" y="426" type="line"/>
    </contour>
    <contour>
      <point x="344" y="362" type="line"/>
      <point x="320" y="341" type="line"/>
      <point x="468" y="341" type="line"/>
      <point x="456" y="363" type="line"/>
      <point x="411" y="214" type="line"/>
      <point x="429" y="229" type="line"/>
      <point x="286" y="229" type="line"/>
      <point x="299" y="213" type="line"/>
    </contour>
  </outline>
</glyph>
<glyph name="ampersand" format="2">
  <advance width="676"/>
  <unicode hex="0026"/>
  <outline>
    <contour>
      <point x="430" y="107" type="line"/>
      <point x="470" y="191" type="line"/>
      <point x="357" y="133" type="line"/>
      <point x="509" y="145" type="line"/>
      <point x="123" y="199" type="line"/>
      <point x="213" y="98" type="line"/>
      <point x="225" y="389" type="line"/>
      <point x="99" y="240" type="line"/>
      <point x="387" y="397" type="line"/>
      <point x="360" y="346" type="line"/>
      <point x="350" y="503" type="line"/>
      <point x="392" y="472" type="line"/>
      <point x="200" y="493" type="line"/>
      <point x="237" y="402" type="line"/>
      <point x="261" y="641" type="line"/>
      <point x="227" y="557" type="line"/>
      <point x="350" y="626" type="line"/>
      <point x="226" y="587" type="line"/>
      <point x="524" y="561" type="line"/>
      <point x="480" y="536" type="line"/>
      <point x="535" y="808" type="line"/>
      <point x="603" y="742" type="line"/>
      <point x="205" y="752" type="line"/>
      <point x="431" y="834" type="line"/>
      <point x="-60" y="590" type="line"/>
      <point x="96" y="774" type="line"/>
      <point x="65" y="285" type="line"/>
      <point x="9" y="437" type="line"/>
      <point x="251" y="356" type="line"/>
      <point x="288" y="431" type="line"/>
      <point x="34" y="306" type="line"/>
      <point x="56" y="385" type="line"/>
      <point x="19" y="8" type="line"/>
      <point x="-86" y="107" type="line"/>
      <point x="433" y="-25" type="line"/>
      <point x="408" y="-26" type="line"/>
      <point x="745" y="124" type="line"/>
      <point x="639" y="61" type="line"/>
      <point x="564" y="370" type="line"/>
      <point x="504" y="310" type="line"/>
      <point x="735" y="289" type="line"/>
      <point x="637" y="246" type="line"/>
      <point x="673" y="522" type="line"/>
      <point x="709" y="476" type="line"/>
      <point x="409" y="473" type="line"/>
      <point x="471" y="531" type="line"/>
      <point x="364" y="399" type="line"/>
      <point x="405" y="507" type="line"/>
    </contour>
  </outline>
</glyph>
<glyph name="period" format="2">
  <advance width="258"/>
  <unicode hex="002E"/>
  <outline>
    <contour>
      <point x="191" y="-50" type="line"/>
      <point x="228" y="198" type="line"/>
      <point x="262" y="165" type="line"/>
      <point x="-9" y="159" type="line"/>
      <point x="43" y="192" type="line"/>
      <point x="33" y="-46" type="line"/>
      <point x="-7" y="2" type="line"/>
      <point x="229" y="-2" type="line"/>
    </contour>
  </outline>
</glyph>
<glyph name="slash" format="2">
  <advance width="353"/>
  <unicode hex="002F"/>
  <outline>
    <contour>
      <point x="158" y="845" type="line"/>
      <point x="244" y="888" type="line"/>
      <point x="48" y="106" type="line"/>
      <point x="166" y="555" type="line"/>
      <point x="-50" y="-228" type="line"/>
      <point x="-97" y="-175" type="line"/>
      <point x="127" y="-175" type="line"/>
      <point x="61" y="-228" type="line"/>
      <point x="257" y="555" type="line"/>
      <point x="140" y="106" type="line"/>
      <point x="355" y="888" type="line"/>
      <point x="405" y="845" type="line"/>
    </contour>
  </outline>
</glyph>
<glyph name="zero" format="2">
  <advance width="615"/>
  <unicode hex="0030"/>
  <outline>
    <contour>
      <point x="63" y="742" type="line"/>
      <point x="28" y="14" type="line"/>
      <point x="-95" y="149" type="line"/>
      <point x="414" y="-47" type="line"/>
      <point x="258" y="-55" type="line"/>
      <point x="688" y="150" type="line"/>
      <point x="520" y="0" type="line"/>
      <point x="602" y="727" type="line"/>
      <point x="687" y="597" type="line"/>
      <point x="185" y="796" type="line"/>
      <point x="375" y="808" type="line"/>
      <point x="-82" y="573" type="line"/>
    </contour>
    <contour>
      <point x="189" y="591" type="line"/>
      <point x="494" y="515" type="line"/>
      <point x="389" y="588" type="line"/>
      <point x="375" y="110" type="line"/>
      <point x="444" y="230" type="line"/>
      <point x="295" y="146" type="line"/>
      <point x="407" y="165" type="line"/>
      <point x="140" y="223" type="line"/>
      <point x="232" y="120" type="line"/>
      <point x="218" y="634" type="line"/>
      <point x="151" y="523" type="line"/>
      <point x="300" y="607" type="line"/>
    </contour>
  </outline>
</glyph>
<glyph name="two" format="2">
  <advance width="545"/>
  <unicode hex="0032"/>
  <outline>
    <contour>
      <point x="-138" y="83" type="line"/>
      <point x="49" y="359" type="line"/>
      <point x="19" y="-66" type="line"/>
      <point x="-10" y="0" type="line"/>
      <point x="576" y="-4" type="line"/>
      <point x="484" y="-65" type="line"/>
      <point x="507" y="300" type="line"/>
      <point x="610" y="188" type="line"/>
      <point x="141" y="149" type="line"/>
      <point x="205" y="109" type="line"/>
      <point x="205" y="277" type="line"/>
      <point x="180" y="157" type="line"/>
      <point x="536" y="424" type="line"/>
      <point x="475" y="327" type="line"/>
      <point x="523" y="749" type="line"/>
      <point x="622" y="596" type="line"/>
      <point x="283" y="771" type="line"/>
      <point x="377" y="775" type="line"/>
      <point x="8" y="707" type="line"/>
      <point x="26" y="780" type="line"/>
      <point x="126" y="435" type="line"/>
      <point x="71" y="530" type="line"/>
      <point x="300" y="598" type="line"/>
      <point x="233" y="606" type="line"/>
      <point x="339" y="541" type="line"/>
      <point x="317" y="590" type="line"/>
      <point x="311" y="368" type="line"/>
      <point x="365" y="503" type="line"/>
    </contour>
  </outline>
</glyph>
<glyph name="three" format="2">
  <advance width="541"/>
  <unicode hex="0033"/>
  <outline>
    <contour>
      <point x="120" y="336" type="line"/>
      <point x="378" y="250" type="line"/>
      <point x="316" y="372" type="line"/>
      <point x="299" y="108" type="line"/>
      <point x="334" y="177" type="line"/>
      <point x="223" y="120" type="line"/>
      <point x="317" y="134" type="line"/>
      <point x="30" y="215" type="line"/>
      <point x="85" y="302" type="line"/>
      <point x="-15" y="-43" type="line"/>
      <point x="-33" y="30" type="line"/>
      <point x="317" y="-26" type="line"/>
      <point x="253" y="-26" type="line"/>
      <point x="595" y="129" type="line"/>
      <point x="461" y="-23" type="line"/>
      <point x="512" y="470" type="line"/>
      <point x="580" y="323" type="line"/>
      <point x="341" y="410" type="line"/>
      <point x="330" y="391" type="line"/>
      <point x="541" y="493" type="line"/>
      <point x="468" y="327" type="line"/>
      <point x="516" y="749" type="line"/>
      <point x="613" y="593" type="line"/>
      <point x="228" y="772" type="line"/>
      <point x="316" y="769" type="line"/>
      <point x="-5" y="730" type="line"/>
      <point x="13" y="803" type="line"/>
      <point x="113" y="457" type="line"/>
      <point x="58" y="552" type="line"/>
      <point x="239" y="593" type="line"/>
      <point x="176" y="608" type="line"/>
      <point x="330" y="543" type="line"/>
      <point x="313" y="590" type="line"/>
      <point x="306" y="368" type="line"/>
      <point x="368" y="500" type="line"/>
      <point x="122" y="374" type="line"/>
      <point x="171" y="454" type="line"/>
      <point x="156" y="277" type="line"/>
    </contour>
  </outline>
</glyph>
<glyph name="four" format="2">
  <advance width="530"/>
  <unicode hex="0034"/>
  <outline>
    <contour>
      <point x="109" y="223" type="line"/>
      <point x="285" y="516" type="line"/>
      <point x="339" y="618" type="line"/>
      <point x="262" y="585" type="line"/>
      <point x="366" y="557" type="line"/>
      <point x="321" y="525" type="line"/>
      <point x="385" y="682" type="line"/>
      <point x="335" y="685" type="line"/>
      <point x="313" y="515" type="line"/>
      <point x="295" y="312" type="line"/>
      <point x="286" y="233" type="line"/>
      <point x="235" y="-78" type="line"/>
      <point x="206" y="0" type="line"/>
      <point x="469" y="0" type="line"/>
      <point x="436" y="-78" type="line"/>
      <point x="454" y="274" type="line"/>
      <point x="464" y="322" type="line"/>
      <point x="511" y="793" type="line"/>
      <point x="542" y="742" type="line"/>
      <point x="267" y="745" type="line"/>
      <point x="322" y="794" type="line"/>
      <point x="-36" y="293" type="line"/>
      <point x="-37" y="373" type="line"/>
      <point x="65" y="146" type="line"/>
      <point x="-16" y="203" type="line"/>
      <point x="318" y="205" type="line"/>
      <point x="543" y="198" type="line"/>
      <point x="522" y="118" type="line"/>
      <point x="540" y="453" type="line"/>
      <point x="550" y="351" type="line"/>
      <point x="323" y="343" type="line"/>
      <point x="101" y="344" type="line"/>
    </contour>
  </outline>
</glyph>
<glyph name="five" format="2">
  <advance width="564"/>
  <unicode hex="0035"/>
  <outline>
    <contour>
      <point x="37" y="742" type="line"/>
      <point x="100" y="771" type="line"/>
      <point x="56" y="292" type="line"/>
      <point x="2" y="373" type="line"/>
      <point x="268" y="267" type="line"/>
      <point x="82" y="285" type="line"/>
      <point x="359" y="304" type="line"/>
      <point x="237" y="356" type="line"/>
      <point x="365" y="244" type="line"/>
      <point x="321" y="372" type="line"/>
      <point x="304" y="108" type="line"/>
      <point x="350" y="177" type="line"/>
      <point x="239" y="120" type="line"/>
      <point x="333" y="125" type="line"/>
      <point x="11" y="210" type="line"/>
      <point x="66" y="307" type="line"/>
      <point x="-34" y="-38" type="line"/>
      <point x="-52" y="35" type="line"/>
      <point x="333" y="-26" type="line"/>
      <point x="269" y="-26" type="line"/>
      <point x="600" y="129" type="line"/>
      <point x="466" y="-23" type="line"/>
      <point x="526" y="470" type="line"/>
      <point x="586" y="315" type="line"/>
      <point x="280" y="502" type="line"/>
      <point x="460" y="445" type="line"/>
      <point x="218" y="441" type="line"/>
      <point x="244" y="409" type="line"/>
      <point x="253" y="639" type="line"/>
      <point x="184" y="593" type="line"/>
      <point x="588" y="556" type="line"/>
      <point x="492" y="515" type="line"/>
      <point x="510" y="791" type="line"/>
      <point x="562" y="745" type="line"/>
    </contour>
  </outline>
</glyph>
<glyph name="seven" format="2">
  <advance width="487"/>
  <unicode hex="0037"/>
  <outline>
    <contour>
      <point x="587" y="634" type="line"/>
      <point x="370" y="866" type="line"/>
      <point x="559" y="790" type="line"/>
      <point x="-40" y="793" type="line"/>
      <point x="34" y="842" type="line"/>
      <point x="15" y="548" type="line"/>
      <point x="-68" y="592" type="line"/>
      <point x="422" y="636" type="line"/>
      <point x="239" y="683" type="line"/>
      <point x="337" y="556" type="line"/>
      <point x="327" y="702" type="line"/>
      <point x="269" y="564" type="line"/>
      <point x="49" y="-23" type="line"/>
      <point x="2" y="0" type="line"/>
      <point x="319" y="0" type="line"/>
      <point x="265" y="-42" type="line"/>
      <point x="529" y="827" type="line"/>
    </contour>
  </outline>
</glyph>
<glyph name="eight" format="2">
  <advance width="596"/>
  <unicode hex="0038"/>
  <outline>
    <contour>
      <point x="305" y="450" type="line"/>
      <point x="231" y="341" type="line"/>
      <point x="422" y="269" type="line"/>
      <point x="377" y="408" type="line"/>
      <point x="359" y="103" type="line"/>
      <point x="402" y="200" type="line"/>
      <point x="291" y="143" type="line"/>
      <point x="473" y="146" type="line"/>
      <point x="130" y="186" type="line"/>
      <point x="224" y="115" type="line"/>
      <point x="226" y="389" type="line"/>
      <point x="91" y="217" type="line"/>
      <point x="343" y="362" type="line"/>
      <point x="232" y="433" type="line"/>
      <point x="-19" y="324" type="line"/>
      <point x="57" y="385" type="line"/>
      <point x="33" y="25" type="line"/>
      <point x="-75" y="125" type="line"/>
      <point x="354" y="-25" type="line"/>
      <point x="320" y="-26" type="line"/>
      <point x="652" y="124" type="line"/>
      <point x="524" y="-27" type="line"/>
      <point x="568" y="466" type="line"/>
      <point x="675" y="326" type="line"/>
    </contour>
    <contour>
      <point x="263" y="378" type="line"/>
      <point x="329" y="448" type="line"/>
      <point x="238" y="484" type="line"/>
      <point x="246" y="402" type="line"/>
      <point x="267" y="641" type="line"/>
      <point x="231" y="557" type="line"/>
      <point x="354" y="626" type="line"/>
      <point x="130" y="608" type="line"/>
      <point x="471" y="558" type="line"/>
      <point x="382" y="632" type="line"/>
      <point x="374" y="433" type="line"/>
      <point x="404" y="506" type="line"/>
      <point x="271" y="429" type="line"/>
      <point x="356" y="377" type="line"/>
      <point x="615" y="517" type="line"/>
      <point x="533" y="419" type="line"/>
      <point x="561" y="699" type="line"/>
      <point x="676" y="623" type="line"/>
      <point x="247" y="777" type="line"/>
      <point x="435" y="834" type="line"/>
      <point x="-56" y="590" type="line"/>
      <point x="96" y="774" type="line"/>
      <point x="68" y="285" type="line"/>
      <point x="7" y="466" type="line"/>
    </contour>
  </outline>
</glyph>
<glyph name="question" format="2">
  <advance width="463"/>
  <unicode hex="003F"/>
  <outline>
    <contour>
      <point x="205" y="-49" type="line"/>
      <point x="222" y="184" type="line"/>
      <point x="258" y="153" type="line"/>
      <point x="3" y="147" type="line"/>
      <point x="52" y="178" type="line"/>
      <point x="43" y="-45" type="line"/>
      <point x="5" y="0" type="line"/>
      <point x="227" y="-4" type="line"/>
    </contour>
    <contour>
      <point x="288" y="663" type="line"/>
      <point x="261" y="405" type="line"/>
      <point x="319" y="504" type="line"/>
      <point x="207" y="437" type="line"/>
      <point x="330" y="463" type="line"/>
      <point x="63" y="485" type="line"/>
      <point x="205" y="513" type="line"/>
      <point x="16" y="397" type="line"/>
      <point x="70" y="484" type="line"/>
      <point x="60" y="201" type="line"/>
      <point x="20" y="225" type="line"/>
      <point x="251" y="222" type="line"/>
      <point x="210" y="195" type="line"/>
      <point x="228" y="393" type="line"/>
      <point x="196" y="316" type="line"/>
      <point x="262" y="362" type="line"/>
      <point x="178" y="351" type="line"/>
      <point x="406" y="316" type="line"/>
      <point x="223" y="289" type="line"/>
      <point x="505" y="473" type="line"/>
      <point x="414" y="299" type="line"/>
      <point x="463" y="755" type="line"/>
      <point x="497" y="633" type="line"/>
      <point x="207" y="803" type="line"/>
      <point x="316" y="791" type="line"/>
      <point x="-26" y="774" type="line"/>
      <point x="14" y="813" type="line"/>
      <point x="42" y="540" type="line"/>
      <point x="13" y="591" type="line"/>
      <point x="324" y="626" type="line"/>
      <point x="199" y="633" type="line"/>
      <point x="305" y="547" type="line"/>
    </contour>
  </outline>
</glyph>
<glyph name="at" format="2">
  <advance width="988"/>
  <unicode hex="0040"/>
  <outline>
    <contour>
      <point x="876" y="-155" type="line"/>
      <point x="842" y="-208" type="line"/>
      <point x="786" y="5" type="line"/>
      <point x="830" y="-49" type="line"/>
      <point x="437" y="-150" type="line"/>
      <point x="559" y="-136" type="line"/>
      <point x="106" y="47" type="line"/>
      <point x="160" y="-9" type="line"/>
      <point x="164" y="633" type="line"/>
      <point x="116" y="565" type="line"/>
      <point x="472" y="744" type="line"/>
      <point x="373" y="719" type="line"/>
      <point x="898" y="559" type="line"/>
      <point x="852" y="601" type="line"/>
      <point x="823" y="142" type="line"/>
      <point x="853" y="190" type="line"/>
      <point x="735" y="129" type="line"/>
      <point x="792" y="144" type="line"/>
      <point x="685" y="202" type="line"/>
      <point x="706" y="155" type="line"/>
      <point x="748" y="583" type="line"/>
      <point x="768" y="494" type="line"/>
      <point x="362" y="604" type="line"/>
      <point x="500" y="614" type="line"/>
      <point x="185" y="464" type="line"/>
      <point x="282" y="585" type="line"/>
      <point x="273" y="97" type="line"/>
      <point x="226" y="129" type="line"/>
      <point x="562" y="10" type="line"/>
      <point x="532" y="9" type="line"/>
      <point x="676" y="181" type="line"/>
      <point x="659" y="164" type="line"/>
      <point x="391" y="203" type="line"/>
      <point x="445" y="155" type="line"/>
      <point x="426" y="482" type="line"/>
      <point x="402" y="399" type="line"/>
      <point x="483" y="444" type="line"/>
      <point x="373" y="431" type="line"/>
      <point x="629" y="394" type="line"/>
      <point x="570" y="432" type="line"/>
      <point x="550" y="48" type="line"/>
      <point x="570" y="139" type="line"/>
      <point x="709" y="3" type="line"/>
      <point x="674" y="3" type="line"/>
      <point x="928" y="111" type="line"/>
      <point x="903" y="41" type="line"/>
      <point x="980" y="739" type="line"/>
      <point x="1088" y="587" type="line"/>
      <point x="321" y="860" type="line"/>
      <point x="537" y="873" type="line"/>
      <point x="-87" y="580" type="line"/>
      <point x="78" y="757" type="line"/>
      <point x="35" y="-151" type="line"/>
      <point x="-102" y="-2" type="line"/>
      <point x="576" y="-244" type="line"/>
      <point x="408" y="-243" type="line"/>
    </contour>
  </outline>
</glyph>
<glyph name="A" format="2">
  <advance width="698"/>
  <unicode hex="0041"/>
  <anchor x="606" y="0" name="ogonek"/>
  <anchor x="372" y="790" name="top"/>
  <outline>
    <contour>
      <point x="130" y="614" type="line"/>
      <point x="10" y="-44" type="line"/>
      <point x="-27" y="0" type="line"/>
      <point x="269" y="0" type="line"/>
      <point x="221" y="-44" type="line"/>
      <point x="308" y="684" type="line"/>
      <point x="344" y="695" type="line"/>
      <point x="159" y="594" type="line"/>
      <point x="185" y="659" type="line"/>
      <point x="215" y="560" type="line"/>
      <point x="243" y="624" type="line"/>
      <point x="171" y="588" type="line"/>
      <point x="72" y="527" type="line"/>
    </contour>
    <contour>
      <point x="187" y="357" type="line"/>
      <point x="188" y="248" type="line"/>
      <point x="520" y="332" type="line"/>
      <point x="523" y="443" type="line"/>
    </contour>
    <contour>
      <point x="664" y="862" type="line"/>
      <point x="702" y="632" type="line"/>
      <point x="424" y="844" type="line"/>
      <point x="625" y="790" type="line"/>
      <point x="-34" y="793" type="line"/>
      <point x="40" y="842" type="line"/>
      <point x="21" y="548" type="line"/>
      <point x="-62" y="588" type="line"/>
      <point x="488" y="628" type="line"/>
      <point x="373" y="661" type="line"/>
      <point x="456" y="591" type="line"/>
      <point x="437" y="685" type="line"/>
      <point x="397" y="-54" type="line"/>
      <point x="354" y="85" type="line"/>
      <point x="468" y="-55" type="line"/>
      <point x="369" y="0" type="line"/>
      <point x="734" y="-3" type="line"/>
      <point x="660" y="-52" type="line"/>
      <point x="679" y="242" type="line"/>
      <point x="762" y="197" type="line"/>
      <point x="540" y="177" type="line"/>
      <point x="591" y="94" type="line"/>
    </contour>
  </outline>
</glyph>
<glyph name="B" format="2">
  <advance width="666"/>
  <unicode hex="0042"/>
  <outline>
    <contour>
      <point x="557" y="612" type="line"/>
      <point x="206" y="389" type="line"/>
      <point x="222" y="431" type="line"/>
      <point x="266" y="283" type="line"/>
      <point x="222" y="293" type="line"/>
      <point x="311" y="345" type="line"/>
      <point x="422" y="417" type="line"/>
      <point x="672" y="563" type="line"/>
      <point x="576" y="446" type="line"/>
      <point x="650" y="744" type="line"/>
      <point x="737" y="663" type="line"/>
      <point x="290" y="835" type="line"/>
      <point x="361" y="837" type="line"/>
      <point x="181" y="620" type="line"/>
      <point x="167" y="648" type="line"/>
      <point x="518" y="580" type="line"/>
      <point x="434" y="678" type="line"/>
      <point x="425" y="464" type="line"/>
    </contour>
    <contour>
      <point x="45" y="-43" type="line"/>
      <point x="18" y="52" type="line"/>
      <point x="464" y="-41" type="line"/>
      <point x="317" y="-63" type="line"/>
      <point x="737" y="173" type="line"/>
      <point x="579" y="-52" type="line"/>
      <point x="636" y="446" type="line"/>
      <point x="730" y="376" type="line"/>
      <point x="413" y="476" type="line"/>
      <point x="489" y="488" type="line"/>
      <point x="263" y="335" type="line"/>
      <point x="263" y="340" type="line"/>
      <point x="514" y="284" type="line"/>
      <point x="422" y="350" type="line"/>
      <point x="420" y="79" type="line"/>
      <point x="453" y="201" type="line"/>
      <point x="368" y="138" type="line"/>
      <point x="511" y="159" type="line"/>
      <point x="221" y="168" type="line"/>
      <point x="264" y="116" type="line"/>
      <point x="285" y="767" type="line"/>
      <point x="340" y="703" type="line"/>
      <point x="76" y="835" type="line"/>
      <point x="141" y="859" type="line"/>
      <point x="13" y="627" type="line"/>
      <point x="-20" y="651" type="line"/>
      <point x="166" y="600" type="line"/>
      <point x="105" y="690" type="line"/>
    </contour>
  </outline>
</glyph>
<glyph name="D" format="2">
  <advance width="649"/>
  <unicode hex="0044"/>
  <anchor x="352" y="742" name="top"/>
  <outline>
    <contour>
      <point x="270" y="718" type="line"/>
      <point x="176" y="619" type="line"/>
      <point x="204" y="526" type="line"/>
      <point x="231" y="586" type="line"/>
      <point x="164" y="552" type="line"/>
      <point x="71" y="495" type="line"/>
      <point x="91" y="540" type="line"/>
      <point x="43" y="-40" type="line"/>
      <point x="17" y="49" type="line"/>
      <point x="455" y="-38" type="line"/>
      <point x="317" y="-59" type="line"/>
      <point x="711" y="162" type="line"/>
      <point x="563" y="-49" type="line"/>
      <point x="645" y="809" type="line"/>
      <point x="674" y="573" type="line"/>
      <point x="413" y="772" type="line"/>
      <point x="609" y="742" type="line"/>
      <point x="-32" y="745" type="line"/>
      <point x="38" y="791" type="line"/>
      <point x="20" y="515" type="line"/>
      <point x="-58" y="552" type="line"/>
      <point x="480" y="592" type="line"/>
      <point x="359" y="609" type="line"/>
      <point x="454" y="531" type="line"/>
      <point x="432" y="643" type="line"/>
      <point x="414" y="74" type="line"/>
      <point x="445" y="189" type="line"/>
      <point x="365" y="130" type="line"/>
      <point x="499" y="149" type="line"/>
      <point x="208" y="158" type="line"/>
      <point x="248" y="109" type="line"/>
    </contour>
  </outline>
</glyph>
<glyph name="E" format="2">
  <advance width="501"/>
  <unicode hex="0045"/>
  <anchor x="416" y="0" name="ogonek"/>
  <anchor x="286" y="742" name="top"/>
  <outline>
    <contour>
      <point x="213" y="439" type="line"/>
      <point x="201" y="312" type="line"/>
      <point x="441" y="309" type="line"/>
      <point x="410" y="277" type="line"/>
      <point x="425" y="512" type="line"/>
      <point x="454" y="455" type="line"/>
    </contour>
    <contour>
      <point x="244" y="640" type="line"/>
      <point x="190" y="541" type="line"/>
      <point x="306" y="606" type="line"/>
      <point x="219" y="582" type="line"/>
      <point x="517" y="556" type="line"/>
      <point x="473" y="536" type="line"/>
      <point x="528" y="808" type="line"/>
      <point x="596" y="742" type="line"/>
      <point x="198" y="752" type="line"/>
      <point x="375" y="808" type="line"/>
      <point x="-72" y="593" type="line"/>
      <point x="77" y="777" type="line"/>
      <point x="19" y="-42" type="line"/>
      <point x="-3" y="0" type="line"/>
      <point x="542" y="-2" type="line"/>
      <point x="469" y="-49" type="line"/>
      <point x="487" y="227" type="line"/>
      <point x="568" y="184" type="line"/>
      <point x="173" y="158" type="line"/>
      <point x="212" y="123" type="line"/>
      <point x="225" y="329" type="line"/>
      <point x="230" y="419" type="line"/>
    </contour>
  </outline>
</glyph>
<glyph name="F" format="2">
  <advance width="509"/>
  <unicode hex="0046"/>
  <outline>
    <contour>
      <point x="214" y="403" type="line"/>
      <point x="202" y="276" type="line"/>
      <point x="452" y="273" type="line"/>
      <point x="421" y="241" type="line"/>
      <point x="437" y="476" type="line"/>
      <point x="466" y="420" type="line"/>
    </contour>
    <contour>
      <point x="252" y="642" type="line"/>
      <point x="202" y="541" type="line"/>
      <point x="317" y="606" type="line"/>
      <point x="231" y="589" type="line"/>
      <point x="528" y="552" type="line"/>
      <point x="483" y="533" type="line"/>
      <point x="539" y="805" type="line"/>
      <point x="606" y="739" type="line"/>
      <point x="209" y="757" type="line"/>
      <point x="387" y="804" type="line"/>
      <point x="-60" y="588" type="line"/>
      <point x="87" y="700" type="line"/>
      <point x="18" y="-78" type="line"/>
      <point x="-2" y="0" type="line"/>
      <point x="261" y="0" type="line"/>
      <point x="221" y="-78" type="line"/>
      <point x="235" y="316" type="line"/>
    </contour>
  </outline>
</glyph>
<glyph name="G" format="2">
  <advance width="620"/>
  <unicode hex="0047"/>
  <anchor x="307" y="0" name="bottom"/>
  <anchor x="344" y="742" name="top"/>
  <outline>
    <contour>
      <point x="400" y="82" type="line"/>
      <point x="542" y="186" type="line"/>
      <point x="303" y="132" type="line"/>
      <point x="437" y="131" type="line"/>
      <point x="207" y="197" type="line"/>
      <point x="234" y="132" type="line"/>
      <point x="259" y="598" type="line"/>
      <point x="211" y="555" type="line"/>
      <point x="326" y="620" type="line"/>
      <point x="240" y="604" type="line"/>
      <point x="571" y="541" type="line"/>
      <point x="527" y="505" type="line"/>
      <point x="583" y="777" type="line"/>
      <point x="650" y="720" type="line"/>
      <point x="218" y="770" type="line"/>
      <point x="396" y="808" type="line"/>
      <point x="-51" y="588" type="line"/>
      <point x="95" y="747" type="line"/>
      <point x="31" y="14" type="line"/>
      <point x="-16" y="124" type="line"/>
      <point x="377" y="-54" type="line"/>
      <point x="176" y="-46" type="line"/>
      <point x="590" y="38" type="line"/>
      <point x="551" y="5" type="line"/>
      <point x="594" y="502" type="line"/>
      <point x="634" y="372" type="line"/>
      <point x="527" y="503" type="line"/>
      <point x="620" y="452" type="line"/>
      <point x="277" y="454" type="line"/>
      <point x="347" y="500" type="line"/>
      <point x="329" y="224" type="line"/>
      <point x="251" y="267" type="line"/>
      <point x="460" y="285" type="line"/>
      <point x="412" y="363" type="line"/>
    </contour>
  </outline>
</glyph>
<glyph name="H" format="2">
  <advance width="681"/>
  <unicode hex="0048"/>
  <outline>
    <contour>
      <point x="443" y="820" type="line"/>
      <point x="392" y="-51" type="line"/>
      <point x="352" y="80" type="line"/>
      <point x="459" y="-52" type="line"/>
      <point x="366" y="0" type="line"/>
      <point x="708" y="-3" type="line"/>
      <point x="639" y="-49" type="line"/>
      <point x="657" y="227" type="line"/>
      <point x="735" y="185" type="line"/>
      <point x="526" y="166" type="line"/>
      <point x="574" y="88" type="line"/>
      <point x="640" y="820" type="line"/>
      <point x="660" y="742" type="line"/>
      <point x="397" y="742" type="line"/>
    </contour>
    <contour>
      <point x="238" y="-78" type="line"/>
      <point x="289" y="793" type="line"/>
      <point x="329" y="662" type="line"/>
      <point x="222" y="793" type="line"/>
      <point x="315" y="742" type="line"/>
      <point x="-28" y="745" type="line"/>
      <point x="42" y="791" type="line"/>
      <point x="24" y="515" type="line"/>
      <point x="-54" y="557" type="line"/>
      <point x="154" y="576" type="line"/>
      <point x="106" y="654" type="line"/>
      <point x="41" y="-78" type="line"/>
      <point x="21" y="0" type="line"/>
      <point x="284" y="0" type="line"/>
    </contour>
    <contour>
      <point x="176" y="388" type="line"/>
      <point x="177" y="285" type="line"/>
      <point x="489" y="364" type="line"/>
      <point x="491" y="469" type="line"/>
    </contour>
  </outline>
</glyph>
<glyph name="I" format="2">
  <advance width="318"/>
  <unicode hex="0049"/>
  <anchor x="164" y="0" name="ogonek"/>
  <anchor x="179" y="742" name="top"/>
  <outline>
    <contour>
      <point x="238" y="-78" type="line"/>
      <point x="289" y="793" type="line"/>
      <point x="329" y="662" type="line"/>
      <point x="222" y="793" type="line"/>
      <point x="315" y="742" type="line"/>
      <point x="-28" y="745" type="line"/>
      <point x="42" y="791" type="line"/>
      <point x="24" y="515" type="line"/>
      <point x="-54" y="557" type="line"/>
      <point x="154" y="576" type="line"/>
      <point x="106" y="654" type="line"/>
      <point x="41" y="-78" type="line"/>
      <point x="21" y="0" type="line"/>
      <point x="284" y="0" type="line"/>
    </contour>
  </outline>
</glyph>
<glyph name="J" format="2">
  <advance width="494"/>
  <unicode hex="004A"/>
  <anchor x="281" y="742" name="top"/>
  <outline>
    <contour>
      <point x="1" y="211" type="line"/>
      <point x="38" y="239" type="line"/>
      <point x="-21" y="-37" type="line"/>
      <point x="-68" y="37" type="line"/>
      <point x="366" y="-35" type="line"/>
      <point x="210" y="-43" type="line"/>
      <point x="552" y="155" type="line"/>
      <point x="417" y="36" type="line"/>
      <point x="471" y="793" type="line"/>
      <point x="511" y="662" type="line"/>
      <point x="404" y="793" type="line"/>
      <point x="497" y="742" type="line"/>
      <point x="18" y="745" type="line"/>
      <point x="88" y="791" type="line"/>
      <point x="70" y="515" type="line"/>
      <point x="-8" y="557" type="line"/>
      <point x="340" y="581" type="line"/>
      <point x="272" y="654" type="line"/>
      <point x="248" y="101" type="line"/>
      <point x="345" y="223" type="line"/>
      <point x="196" y="139" type="line"/>
      <point x="271" y="139" type="line"/>
    </contour>
  </outline>
</glyph>
<glyph name="K" format="2">
  <advance width="670"/>
  <unicode hex="004B"/>
  <anchor x="311" y="0" name="bottom"/>
  <anchor x="337" y="742" name="top"/>
  <outline>
    <contour>
      <point x="238" y="-78" type="line"/>
      <point x="289" y="793" type="line"/>
      <point x="329" y="662" type="line"/>
      <point x="222" y="793" type="line"/>
      <point x="315" y="742" type="line"/>
      <point x="-28" y="745" type="line"/>
      <point x="42" y="791" type="line"/>
      <point x="24" y="515" type="line"/>
      <point x="-54" y="557" type="line"/>
      <point x="154" y="576" type="line"/>
      <point x="106" y="654" type="line"/>
      <point x="41" y="-78" type="line"/>
      <point x="21" y="0" type="line"/>
      <point x="284" y="0" type="line"/>
    </contour>
    <contour>
      <point x="663" y="567" type="line"/>
      <point x="614" y="809" type="line"/>
      <point x="663" y="742" type="line"/>
      <point x="250" y="746" type="line"/>
      <point x="348" y="805" type="line"/>
      <point x="324" y="449" type="line"/>
      <point x="214" y="554" type="line"/>
      <point x="487" y="577" type="line"/>
      <point x="488" y="625" type="line"/>
      <point x="145" y="268" type="line"/>
      <point x="157" y="346" type="line"/>
      <point x="275" y="197" type="line"/>
      <point x="197" y="206" type="line"/>
      <point x="671" y="666" type="line"/>
    </contour>
    <contour>
      <point x="355" y="0" type="line"/>
      <point x="699" y="-3" type="line"/>
      <point x="629" y="-49" type="line"/>
      <point x="647" y="227" type="line"/>
      <point x="725" y="185" type="line"/>
      <point x="478" y="166" type="line"/>
      <point x="585" y="133" type="line"/>
      <point x="417" y="470" type="line"/>
      <point x="465" y="468" type="line"/>
      <point x="245" y="342" type="line"/>
      <point x="274" y="380" type="line"/>
      <point x="432" y="-50" type="line"/>
    </contour>
  </outline>
</glyph>
<glyph name="L" format="2">
  <advance width="492"/>
  <unicode hex="004C"/>
  <anchor x="237" y="0" name="bottom"/>
  <anchor x="287" y="742" name="top"/>
  <outline>
    <contour>
      <point x="250" y="640" type="line"/>
      <point x="195" y="536" type="line"/>
      <point x="311" y="601" type="line"/>
      <point x="225" y="581" type="line"/>
      <point x="377" y="560" type="line"/>
      <point x="333" y="549" type="line"/>
      <point x="397" y="818" type="line"/>
      <point x="463" y="742" type="line"/>
      <point x="204" y="749" type="line"/>
      <point x="381" y="808" type="line"/>
      <point x="-66" y="593" type="line"/>
      <point x="83" y="777" type="line"/>
      <point x="25" y="-42" type="line"/>
      <point x="3" y="0" type="line"/>
      <point x="525" y="-2" type="line"/>
      <point x="453" y="-49" type="line"/>
      <point x="471" y="227" type="line"/>
      <point x="551" y="184" type="line"/>
      <point x="179" y="158" type="line"/>
      <point x="218" y="123" type="line"/>
    </contour>
  </outline>
</glyph>
<glyph name="N" format="2">
  <advance width="709"/>
  <unicode hex="004E"/>
  <anchor x="334" y="0" name="bottom"/>
  <anchor x="411" y="742" name="top"/>
  <outline>
    <contour>
      <point x="434" y="299" type="line"/>
      <point x="478" y="259" type="line"/>
      <point x="450" y="364" type="line"/>
      <point x="296" y="784" type="line"/>
      <point x="362" y="742" type="line"/>
      <point x="-28" y="745" type="line"/>
      <point x="42" y="791" type="line"/>
      <point x="24" y="515" type="line"/>
      <point x="-54" y="557" type="line"/>
      <point x="154" y="576" type="line"/>
      <point x="106" y="654" type="line"/>
      <point x="44" y="-78" type="line"/>
      <point x="21" y="0" type="line"/>
      <point x="284" y="0" type="line"/>
      <point x="240" y="-78" type="line"/>
      <point x="261" y="485" type="line"/>
      <point x="234" y="452" type="line"/>
      <point x="291" y="452" type="line"/>
      <point x="254" y="475" type="line"/>
      <point x="278" y="409" type="line"/>
      <point x="473" y="-51" type="line"/>
      <point x="414" y="0" type="line"/>
      <point x="641" y="0" type="line"/>
      <point x="608" y="-78" type="line"/>
      <point x="680" y="793" type="line"/>
      <point x="699" y="742" type="line"/>
      <point x="436" y="742" type="line"/>
      <point x="483" y="824" type="line"/>
      <point x="469" y="267" type="line"/>
      <point x="497" y="299" type="line"/>
    </contour>
  </outline>
</glyph>
<glyph name="O" format="2">
  <advance width="656"/>
  <unicode hex="004F"/>
  <anchor x="334" y="742" name="top"/>
  <outline>
    <contour>
      <point x="59" y="746" type="line"/>
      <point x="28" y="10" type="line"/>
      <point x="-93" y="145" type="line"/>
      <point x="454" y="-52" type="line"/>
      <point x="298" y="-60" type="line"/>
      <point x="728" y="146" type="line"/>
      <point x="565" y="-4" type="line"/>
      <point x="643" y="731" type="line"/>
      <point x="727" y="602" type="line"/>
      <point x="187" y="801" type="line"/>
      <point x="377" y="812" type="line"/>
      <point x="-80" y="577" type="line"/>
    </contour>
    <contour>
      <point x="191" y="593" type="line"/>
      <point x="533" y="513" type="line"/>
      <point x="428" y="592" type="line"/>
      <point x="414" y="106" type="line"/>
      <point x="485" y="228" type="line"/>
      <point x="336" y="144" type="line"/>
      <point x="446" y="163" type="line"/>
      <point x="142" y="225" type="line"/>
      <point x="234" y="116" type="line"/>
      <point x="220" y="638" type="line"/>
      <point x="151" y="525" type="line"/>
      <point x="300" y="608" type="line"/>
    </contour>
  </outline>
</glyph>
<glyph name="P" format="2">
  <advance width="669"/>
  <unicode hex="0050"/>
  <outline>
    <contour>
      <point x="43" y="-40" type="line"/>
      <point x="-1" y="0" type="line"/>
      <point x="295" y="0" type="line"/>
      <point x="262" y="-40" type="line"/>
      <point x="264" y="247" type="line"/>
      <point x="220" y="155" type="line"/>
      <point x="320" y="210" type="line"/>
      <point x="309" y="188" type="line"/>
      <point x="268" y="325" type="line"/>
      <point x="284" y="767" type="line"/>
      <point x="340" y="703" type="line"/>
      <point x="76" y="835" type="line"/>
      <point x="141" y="859" type="line"/>
      <point x="13" y="627" type="line"/>
      <point x="-20" y="651" type="line"/>
      <point x="166" y="600" type="line"/>
      <point x="105" y="690" type="line"/>
    </contour>
    <contour>
      <point x="218" y="341" type="line"/>
      <point x="170" y="216" type="line"/>
      <point x="499" y="102" type="line"/>
      <point x="270" y="76" type="line"/>
      <point x="695" y="276" type="line"/>
      <point x="604" y="141" type="line"/>
      <point x="657" y="776" type="line"/>
      <point x="715" y="717" type="line"/>
      <point x="293" y="832" type="line"/>
      <point x="368" y="831" type="line"/>
      <point x="186" y="628" type="line"/>
      <point x="170" y="639" type="line"/>
      <point x="503" y="606" type="line"/>
      <point x="442" y="680" type="line"/>
      <point x="438" y="272" type="line"/>
      <point x="474" y="362" type="line"/>
      <point x="391" y="297" type="line"/>
      <point x="503" y="317" type="line"/>
    </contour>
  </outline>
</glyph>
<glyph name="Q" format="2">
  <advance width="657"/>
  <unicode hex="0051"/>
  <outline>
    <contour>
      <point x="441" y="161" type="line"/>
      <point x="462" y="126" type="line"/>
      <point x="454" y="208" type="line"/>
      <point x="431" y="156" type="line"/>
      <point x="516" y="187" type="line"/>
      <point x="707" y="278" type="line"/>
      <point x="568" y="138" type="line"/>
      <point x="639" y="727" type="line"/>
      <point x="725" y="597" type="line"/>
      <point x="185" y="796" type="line"/>
      <point x="375" y="808" type="line"/>
      <point x="-82" y="573" type="line"/>
      <point x="63" y="742" type="line"/>
      <point x="28" y="14" type="line"/>
      <point x="-95" y="149" type="line"/>
      <point x="423" y="-47" type="line"/>
      <point x="273" y="0" type="line"/>
      <point x="685" y="-3" type="line"/>
      <point x="616" y="-49" type="line"/>
      <point x="634" y="227" type="line"/>
      <point x="712" y="185" type="line"/>
    </contour>
    <contour>
      <point x="189" y="589" type="line"/>
      <point x="531" y="513" type="line"/>
      <point x="424" y="588" type="line"/>
      <point x="410" y="110" type="line"/>
      <point x="460" y="240" type="line"/>
      <point x="307" y="162" type="line"/>
      <point x="427" y="160" type="line"/>
      <point x="140" y="219" type="line"/>
      <point x="234" y="120" type="line"/>
      <point x="220" y="634" type="line"/>
      <point x="151" y="521" type="line"/>
      <point x="300" y="605" type="line"/>
    </contour>
  </outline>
</glyph>
<glyph name="R" format="2">
  <advance width="655"/>
  <unicode hex="0052"/>
  <anchor x="311" y="0" name="bottom"/>
  <anchor x="351" y="742" name="top"/>
  <outline>
    <contour>
      <point x="546" y="518" type="line"/>
      <point x="216" y="311" type="line"/>
      <point x="218" y="319" type="line"/>
      <point x="260" y="180" type="line"/>
      <point x="231" y="210" type="line"/>
      <point x="337" y="272" type="line"/>
      <point x="419" y="324" type="line"/>
      <point x="654" y="458" type="line"/>
      <point x="568" y="379" type="line"/>
      <point x="637" y="680" type="line"/>
      <point x="715" y="607" type="line"/>
      <point x="278" y="786" type="line"/>
      <point x="345" y="787" type="line"/>
      <point x="176" y="582" type="line"/>
      <point x="163" y="619" type="line"/>
      <point x="509" y="541" type="line"/>
      <point x="430" y="618" type="line"/>
      <point x="422" y="396" type="line"/>
    </contour>
    <contour>
      <point x="48" y="-38" type="line"/>
      <point x="7" y="0" type="line"/>
      <point x="285" y="0" type="line"/>
      <point x="246" y="-38" type="line"/>
      <point x="274" y="720" type="line"/>
      <point x="325" y="660" type="line"/>
      <point x="77" y="784" type="line"/>
      <point x="138" y="807" type="line"/>
      <point x="18" y="589" type="line"/>
      <point x="-13" y="611" type="line"/>
      <point x="162" y="563" type="line"/>
      <point x="105" y="648" type="line"/>
    </contour>
    <contour>
      <point x="350" y="0" type="line"/>
      <point x="686" y="-3" type="line"/>
      <point x="616" y="-49" type="line"/>
      <point x="634" y="227" type="line"/>
      <point x="712" y="185" type="line"/>
      <point x="473" y="166" type="line"/>
      <point x="580" y="133" type="line"/>
      <point x="452" y="374" type="line"/>
      <point x="296" y="305" type="line"/>
      <point x="427" y="-50" type="line"/>
    </contour>
  </outline>
</glyph>
<glyph name="S" format="2">
  <advance width="600"/>
  <unicode hex="0053"/>
  <anchor x="291" y="0" name="bottom"/>
  <anchor x="324" y="742" name="top"/>
  <outline>
    <contour>
      <point x="583" y="827" type="line"/>
      <point x="586" y="720" type="line"/>
      <point x="228" y="767" type="line"/>
      <point x="418" y="827" type="line"/>
      <point x="-26" y="583" type="line"/>
      <point x="94" y="771" type="line"/>
      <point x="63" y="282" type="line"/>
      <point x="9" y="362" type="line"/>
      <point x="274" y="256" type="line"/>
      <point x="78" y="274" type="line"/>
      <point x="424" y="303" type="line"/>
      <point x="287" y="355" type="line"/>
      <point x="416" y="243" type="line"/>
      <point x="374" y="372" type="line"/>
      <point x="357" y="108" type="line"/>
      <point x="405" y="180" type="line"/>
      <point x="295" y="123" type="line"/>
      <point x="399" y="135" type="line"/>
      <point x="23" y="211" type="line"/>
      <point x="77" y="303" type="line"/>
      <point x="-22" y="-42" type="line"/>
      <point x="-40" y="31" type="line"/>
      <point x="399" y="-25" type="line"/>
      <point x="307" y="-35" type="line"/>
      <point x="601" y="119" type="line"/>
      <point x="521" y="-23" type="line"/>
      <point x="581" y="470" type="line"/>
      <point x="679" y="331" type="line"/>
      <point x="354" y="485" type="line"/>
      <point x="525" y="464" type="line"/>
      <point x="215" y="424" type="line"/>
      <point x="309" y="395" type="line"/>
      <point x="227" y="459" type="line"/>
      <point x="253" y="399" type="line"/>
      <point x="276" y="639" type="line"/>
      <point x="233" y="576" type="line"/>
      <point x="356" y="645" type="line"/>
      <point x="244" y="609" type="line"/>
      <point x="560" y="531" type="line"/>
      <point x="499" y="479" type="line"/>
    </contour>
  </outline>
</glyph>
<glyph name="U" format="2">
  <advance width="672"/>
  <unicode hex="0055"/>
  <anchor x="551" y="1" name="ogonek"/>
  <anchor x="382" y="742" name="top"/>
  <outline>
    <contour>
      <point x="641" y="779" type="line"/>
      <point x="683" y="742" type="line"/>
      <point x="405" y="742" type="line"/>
      <point x="443" y="779" type="line"/>
      <point x="414" y="22" type="line"/>
      <point x="362" y="82" type="line"/>
      <point x="610" y="-42" type="line"/>
      <point x="549" y="-65" type="line"/>
      <point x="670" y="153" type="line"/>
      <point x="700" y="131" type="line"/>
      <point x="526" y="178" type="line"/>
      <point x="583" y="94" type="line"/>
    </contour>
    <contour>
      <point x="193" y="207" type="line"/>
      <point x="227" y="176" type="line"/>
      <point x="316" y="776" type="line"/>
      <point x="356" y="662" type="line"/>
      <point x="249" y="793" type="line"/>
      <point x="311" y="742" type="line"/>
      <point x="-8" y="745" type="line"/>
      <point x="62" y="791" type="line"/>
      <point x="44" y="515" type="line"/>
      <point x="-34" y="555" type="line"/>
      <point x="216" y="577" type="line"/>
      <point x="140" y="639" type="line"/>
      <point x="2" y="77" type="line"/>
      <point x="-16" y="125" type="line"/>
      <point x="413" y="-41" type="line"/>
      <point x="345" y="-40" type="line"/>
      <point x="514" y="162" type="line"/>
      <point x="529" y="140" type="line"/>
    </contour>
  </outline>
</glyph>
<glyph name="V" format="2">
  <advance width="654"/>
  <unicode hex="0056"/>
  <outline>
    <contour>
      <point x="655" y="187" type="line"/>
      <point x="569" y="35" type="line"/>
      <point x="650" y="801" type="line"/>
      <point x="657" y="742" type="line"/>
      <point x="389" y="742" type="line"/>
      <point x="450" y="801" type="line"/>
      <point x="403" y="87" type="line"/>
      <point x="450" y="149" type="line"/>
      <point x="146" y="284" type="line"/>
      <point x="219" y="115" type="line"/>
      <point x="309" y="776" type="line"/>
      <point x="349" y="662" type="line"/>
      <point x="242" y="793" type="line"/>
      <point x="304" y="742" type="line"/>
      <point x="-14" y="745" type="line"/>
      <point x="55" y="791" type="line"/>
      <point x="38" y="515" type="line"/>
      <point x="-40" y="554" type="line"/>
      <point x="209" y="585" type="line"/>
      <point x="133" y="639" type="line"/>
      <point x="-7" y="17" type="line"/>
      <point x="-67" y="210" type="line"/>
      <point x="426" y="-62" type="line"/>
      <point x="231" y="-129" type="line"/>
    </contour>
  </outline>
</glyph>
<glyph name="W" format="2">
  <advance width="1009"/>
  <unicode hex="0057"/>
  <anchor x="548" y="742" name="top"/>
  <outline>
    <contour>
      <point x="567" y="119" type="line"/>
      <point x="447" y="119" type="line"/>
      <point x="776" y="-62" type="line"/>
      <point x="580" y="-129" type="line"/>
      <point x="1005" y="187" type="line"/>
      <point x="919" y="35" type="line"/>
      <point x="999" y="801" type="line"/>
      <point x="1007" y="742" type="line"/>
      <point x="738" y="742" type="line"/>
      <point x="799" y="801" type="line"/>
      <point x="752" y="87" type="line"/>
      <point x="799" y="149" type="line"/>
      <point x="551" y="259" type="line"/>
      <point x="591" y="210" type="line"/>
      <point x="653" y="801" type="line"/>
      <point x="660" y="742" type="line"/>
      <point x="392" y="742" type="line"/>
      <point x="453" y="801" type="line"/>
      <point x="406" y="87" type="line"/>
      <point x="453" y="149" type="line"/>
      <point x="149" y="284" type="line"/>
      <point x="222" y="115" type="line"/>
      <point x="312" y="776" type="line"/>
      <point x="352" y="662" type="line"/>
      <point x="245" y="793" type="line"/>
      <point x="307" y="742" type="line"/>
      <point x="-11" y="745" type="line"/>
      <point x="58" y="791" type="line"/>
      <point x="41" y="515" type="line"/>
      <point x="-37" y="554" type="line"/>
      <point x="212" y="585" type="line"/>
      <point x="136" y="639" type="line"/>
      <point x="-4" y="17" type="line"/>
      <point x="-64" y="210" type="line"/>
      <point x="429" y="-62" type="line"/>
      <point x="234" y="-129" type="line"/>
    </contour>
  </outline>
</glyph>
<glyph name="Y" format="2">
  <advance width="647"/>
  <unicode hex="0059"/>
  <anchor x="368" y="742" name="top"/>
  <outline>
    <contour>
      <point x="655" y="169" type="line"/>
      <point x="565" y="-78" type="line"/>
      <point x="623" y="801" type="line"/>
      <point x="652" y="742" type="line"/>
      <point x="384" y="742" type="line"/>
      <point x="432" y="801" type="line"/>
      <point x="408" y="345" type="line"/>
      <point x="353" y="313" type="line"/>
      <point x="448" y="288" type="line"/>
      <point x="410" y="327" type="line"/>
      <point x="400" y="108" type="line"/>
      <point x="436" y="194" type="line"/>
      <point x="358" y="129" type="line"/>
      <point x="473" y="153" type="line"/>
      <point x="-25" y="184" type="line"/>
      <point x="71" y="227" type="line"/>
      <point x="53" y="-49" type="line"/>
      <point x="1" y="-3" type="line"/>
      <point x="602" y="0" type="line"/>
      <point x="394" y="-30" type="line"/>
    </contour>
    <contour>
      <point x="305" y="184" type="line"/>
      <point x="476" y="379" type="line"/>
      <point x="504" y="355" type="line"/>
      <point x="127" y="448" type="line"/>
      <point x="244" y="361" type="line"/>
      <point x="310" y="776" type="line"/>
      <point x="351" y="662" type="line"/>
      <point x="244" y="793" type="line"/>
      <point x="306" y="742" type="line"/>
      <point x="-13" y="745" type="line"/>
      <point x="57" y="791" type="line"/>
      <point x="39" y="515" type="line"/>
      <point x="-39" y="554" type="line"/>
      <point x="211" y="585" type="line"/>
      <point x="135" y="639" type="line"/>
      <point x="41" y="301" type="line"/>
      <point x="-86" y="375" type="line"/>
      <point x="394" y="182" type="line"/>
    </contour>
  </outline>
</glyph>
<glyph name="Z" format="2">
  <advance width="600"/>
  <unicode hex="005A"/>
  <anchor x="330" y="790" name="top"/>
  <outline>
    <contour>
      <point x="-68" y="-42" type="line"/>
      <point x="-103" y="153" type="line"/>
      <point x="149" y="-74" type="line"/>
      <point x="-20" y="0" type="line"/>
      <point x="661" y="-4" type="line"/>
      <point x="563" y="-69" type="line"/>
      <point x="588" y="319" type="line"/>
      <point x="698" y="200" type="line"/>
      <point x="201" y="163" type="line"/>
      <point x="346" y="110" type="line"/>
      <point x="224" y="263" type="line"/>
      <point x="256" y="115" type="line"/>
      <point x="324" y="232" type="line"/>
      <point x="626" y="827" type="line"/>
      <point x="660" y="638" type="line"/>
      <point x="435" y="862" type="line"/>
      <point x="604" y="790" type="line"/>
      <point x="-19" y="794" type="line"/>
      <point x="79" y="858" type="line"/>
      <point x="54" y="470" type="line"/>
      <point x="-56" y="585" type="line"/>
      <point x="360" y="623" type="line"/>
      <point x="277" y="674" type="line"/>
      <point x="384" y="555" type="line"/>
      <point x="365" y="672" type="line"/>
      <point x="297" y="564" type="line"/>
    </contour>
  </outline>
</glyph>
<glyph name="bracketleft" format="2">
  <advance width="305"/>
  <unicode hex="005B"/>
  <outline>
    <contour>
      <point x="95" y="-14" type="line"/>
      <point x="141" y="-31" type="line"/>
      <point x="147" y="591" type="line"/>
      <point x="137" y="184" type="line"/>
      <point x="157" y="752" type="line"/>
      <point x="113" y="731" type="line"/>
      <point x="339" y="723" type="line"/>
      <point x="290" y="672" type="line"/>
      <point x="296" y="867" type="line"/>
      <point x="341" y="822" type="line"/>
      <point x="-13" y="820" type="line"/>
      <point x="52" y="894" type="line"/>
      <point x="45" y="184" type="line"/>
      <point x="55" y="591" type="line"/>
      <point x="34" y="-146" type="line"/>
      <point x="-11" y="-103" type="line"/>
      <point x="308" y="-105" type="line"/>
      <point x="284" y="-152" type="line"/>
      <point x="290" y="43" type="line"/>
      <point x="331" y="-7" type="line"/>
    </contour>
  </outline>
</glyph>
<glyph name="underscore" format="2">
  <advance width="507"/>
  <unicode hex="005F"/>
  <outline>
    <contour>
      <point x="23" y="-192" type="line"/>
      <point x="-49" y="-119" type="line"/>
      <point x="311" y="-114" type="line"/>
      <point x="555" y="-117" type="line"/>
      <point x="469" y="-191" type="line"/>
      <point x="482" y="7" type="line"/>
      <point x="562" y="-30" type="line"/>
      <point x="268" y="-32" type="line"/>
      <point x="-60" y="-26" type="line"/>
      <point x="37" y="7" type="line"/>
    </contour>
  </outline>
</glyph>
<glyph name="a" format="2">
  <advance width="592"/>
  <unicode hex="0061"/>
  <anchor x="474" y="0" name="ogonek"/>
  <anchor x="308" y="600" name="top"/>
  <outline>
    <contour>
      <point x="-23" y="411" type="line"/>
      <point x="375" y="467" type="line"/>
      <point x="307" y="493" type="line"/>
      <point x="360" y="430" type="line"/>
      <point x="342" y="500" type="line"/>
      <point x="342" y="441" type="line"/>
      <point x="333" y="431" type="line"/>
      <point x="311" y="-5" type="line"/>
      <point x="276" y="92" type="line"/>
      <point x="540" y="-40" type="line"/>
      <point x="475" y="-64" type="line"/>
      <point x="603" y="168" type="line"/>
      <point x="636" y="129" type="line"/>
      <point x="450" y="180" type="line"/>
      <point x="487" y="129" type="line"/>
      <point x="538" y="663" type="line"/>
      <point x="568" y="501" type="line"/>
      <point x="365" y="649" type="line"/>
      <point x="504" y="600" type="line"/>
      <point x="5" y="603" type="line"/>
      <point x="79" y="652" type="line"/>
      <point x="60" y="358" type="line"/>
    </contour>
    <contour>
      <point x="83" y="211" type="line"/>
      <point x="372" y="398" type="line"/>
      <point x="354" y="460" type="line"/>
      <point x="-37" y="231" type="line"/>
      <point x="71" y="319" type="line"/>
      <point x="7" y="48" type="line"/>
      <point x="-100" y="138" type="line"/>
      <point x="312" y="-41" type="line"/>
      <point x="240" y="-40" type="line"/>
      <point x="420" y="177" type="line"/>
      <point x="435" y="125" type="line"/>
      <point x="124" y="194" type="line"/>
      <point x="210" y="155" type="line"/>
      <point x="220" y="352" type="line"/>
    </contour>
  </outline>
</glyph>
<glyph name="b" format="2">
  <advance width="561"/>
  <unicode hex="0062"/>
  <outline>
    <contour>
      <point x="407" y="415" type="line"/>
      <point x="346" y="458" type="line"/>
      <point x="355" y="77" type="line"/>
      <point x="398" y="162" type="line"/>
      <point x="303" y="109" type="line"/>
      <point x="407" y="128" type="line"/>
      <point x="182" y="143" type="line"/>
      <point x="224" y="71" type="line"/>
      <point x="237" y="485" type="line"/>
      <point x="240" y="502" type="line"/>
      <point x="232" y="506" type="line"/>
      <point x="255" y="796" type="line"/>
      <point x="301" y="685" type="line"/>
      <point x="194" y="817" type="line"/>
      <point x="267" y="770" type="line"/>
      <point x="-47" y="773" type="line"/>
      <point x="23" y="819" type="line"/>
      <point x="6" y="543" type="line"/>
      <point x="-73" y="589" type="line"/>
      <point x="158" y="634" type="line"/>
      <point x="91" y="675" type="line"/>
      <point x="35" y="-59" type="line"/>
      <point x="6" y="63" type="line"/>
      <point x="424" y="-43" type="line"/>
      <point x="236" y="-62" type="line"/>
      <point x="624" y="117" type="line"/>
      <point x="491" y="-46" type="line"/>
      <point x="527" y="548" type="line"/>
      <point x="617" y="490" type="line"/>
      <point x="253" y="599" type="line"/>
      <point x="323" y="598" type="line"/>
      <point x="152" y="407" type="line"/>
      <point x="137" y="443" type="line"/>
    </contour>
  </outline>
</glyph>
<glyph name="c" format="2">
  <advance width="457"/>
  <unicode hex="0063"/>
  <anchor x="209" y="0" name="bottom"/>
  <anchor x="256" y="563" name="top"/>
  <outline>
    <contour>
      <point x="454" y="386" type="line"/>
      <point x="392" y="362" type="line"/>
      <point x="456" y="631" type="line"/>
      <point x="493" y="553" type="line"/>
      <point x="171" y="584" type="line"/>
      <point x="327" y="618" type="line"/>
      <point x="-42" y="439" type="line"/>
      <point x="69" y="571" type="line"/>
      <point x="22" y="5" type="line"/>
      <point x="-17" y="98" type="line"/>
      <point x="293" y="-38" type="line"/>
      <point x="127" y="-9" type="line"/>
      <point x="450" y="0" type="line"/>
      <point x="400" y="-30" type="line"/>
      <point x="393" y="197" type="line"/>
      <point x="425" y="172" type="line"/>
      <point x="232" y="148" type="line"/>
      <point x="343" y="139" type="line"/>
      <point x="168" y="171" type="line"/>
      <point x="197" y="102" type="line"/>
      <point x="207" y="448" type="line"/>
      <point x="165" y="389" type="line"/>
      <point x="260" y="442" type="line"/>
      <point x="184" y="430" type="line"/>
    </contour>
  </outline>
</glyph>
<glyph name="d" format="2">
  <advance width="578"/>
  <unicode hex="0064"/>
  <anchor x="442" y="751" name="top"/>
  <outline>
    <contour>
      <point x="444" y="169" type="line"/>
      <point x="479" y="96" type="line"/>
      <point x="540" y="867" type="line"/>
      <point x="578" y="770" type="line"/>
      <point x="310" y="770" type="line"/>
      <point x="352" y="867" type="line"/>
      <point x="353" y="499" type="line"/>
      <point x="388" y="560" type="line"/>
      <point x="308" y="515" type="line"/>
      <point x="343" y="470" type="line"/>
      <point x="332" y="23" type="line"/>
      <point x="281" y="86" type="line"/>
      <point x="529" y="-38" type="line"/>
      <point x="468" y="-60" type="line"/>
      <point x="588" y="158" type="line"/>
      <point x="619" y="121" type="line"/>
    </contour>
    <contour>
      <point x="393" y="411" type="line"/>
      <point x="438" y="503" type="line"/>
      <point x="138" y="615" type="line"/>
      <point x="371" y="643" type="line"/>
      <point x="-53" y="455" type="line"/>
      <point x="62" y="609" type="line"/>
      <point x="35" y="15" type="line"/>
      <point x="-54" y="73" type="line"/>
      <point x="322" y="-35" type="line"/>
      <point x="252" y="-34" type="line"/>
      <point x="423" y="157" type="line"/>
      <point x="438" y="120" type="line"/>
      <point x="156" y="148" type="line"/>
      <point x="213" y="105" type="line"/>
      <point x="205" y="486" type="line"/>
      <point x="171" y="400" type="line"/>
      <point x="249" y="461" type="line"/>
      <point x="156" y="442" type="line"/>
    </contour>
  </outline>
</glyph>
<glyph name="f" format="2">
  <advance width="371"/>
  <unicode hex="0066"/>
  <outline>
    <contour>
      <point x="183" y="655" type="line"/>
      <point x="407" y="603" type="line"/>
      <point x="331" y="587" type="line"/>
      <point x="409" y="907" type="line"/>
      <point x="446" y="770" type="line"/>
      <point x="111" y="779" type="line"/>
      <point x="339" y="838" type="line"/>
      <point x="-38" y="637" type="line"/>
      <point x="89" y="803" type="line"/>
      <point x="98" y="525" type="line"/>
      <point x="131" y="563" type="line"/>
      <point x="-55" y="566" type="line"/>
      <point x="21" y="612" type="line"/>
      <point x="3" y="336" type="line"/>
      <point x="-82" y="416" type="line"/>
      <point x="149" y="411" type="line"/>
      <point x="88" y="468" type="line"/>
      <point x="30" y="-303" type="line"/>
      <point x="-8" y="-207" type="line"/>
      <point x="260" y="-207" type="line"/>
      <point x="215" y="-303" type="line"/>
      <point x="235" y="456" type="line"/>
      <point x="214" y="408" type="line"/>
      <point x="368" y="400" type="line"/>
      <point x="340" y="377" type="line"/>
      <point x="355" y="612" type="line"/>
      <point x="381" y="563" type="line"/>
      <point x="205" y="563" type="line"/>
      <point x="217" y="531" type="line"/>
      <point x="220" y="700" type="line"/>
      <point x="202" y="632" type="line"/>
      <point x="297" y="685" type="line"/>
    </contour>
  </outline>
</glyph>
<glyph name="g" format="2">
  <advance width="556"/>
  <unicode hex="0067"/>
  <anchor x="289" y="563" name="top"/>
  <outline>
    <contour>
      <point x="577" y="475" type="line"/>
      <point x="137" y="607" type="line"/>
      <point x="297" y="615" type="line"/>
      <point x="-72" y="439" type="line"/>
      <point x="54" y="618" type="line"/>
      <point x="42" y="52" type="line"/>
      <point x="-41" y="110" type="line"/>
      <point x="218" y="9" type="line"/>
      <point x="196" y="38" type="line"/>
      <point x="-48" y="-134" type="line"/>
      <point x="31" y="-36" type="line"/>
      <point x="27" y="-236" type="line"/>
      <point x="-32" y="-166" type="line"/>
      <point x="456" y="-244" type="line"/>
      <point x="307" y="-242" type="line"/>
      <point x="517" y="-105" type="line"/>
      <point x="485" y="-212" type="line"/>
      <point x="492" y="84" type="line"/>
      <point x="544" y="670" type="line"/>
    </contour>
    <contour>
      <point x="397" y="379" type="line"/>
      <point x="355" y="475" type="line"/>
      <point x="351" y="110" type="line"/>
      <point x="331" y="60" type="line"/>
      <point x="377" y="45" type="line"/>
      <point x="337" y="97" type="line"/>
      <point x="348" y="-122" type="line"/>
      <point x="380" y="-53" type="line"/>
      <point x="304" y="-104" type="line"/>
      <point x="378" y="-95" type="line"/>
      <point x="93" y="-53" type="line"/>
      <point x="169" y="-103" type="line"/>
      <point x="154" y="-13" type="line"/>
      <point x="96" y="-97" type="line"/>
      <point x="440" y="125" type="line"/>
      <point x="467" y="117" type="line"/>
      <point x="170" y="185" type="line"/>
      <point x="222" y="142" type="line"/>
      <point x="201" y="495" type="line"/>
      <point x="157" y="385" type="line"/>
      <point x="252" y="439" type="line"/>
      <point x="150" y="423" type="line"/>
    </contour>
  </outline>
</glyph>
<glyph name="h" format="2">
  <advance width="599"/>
  <unicode hex="0068"/>
  <outline>
    <contour>
      <point x="376" y="-47" type="line"/>
      <point x="312" y="0" type="line"/>
      <point x="621" y="-3" type="line"/>
      <point x="551" y="-49" type="line"/>
      <point x="569" y="227" type="line"/>
      <point x="647" y="177" type="line"/>
      <point x="397" y="142" type="line"/>
      <point x="464" y="102" type="line"/>
      <point x="586" y="536" type="line"/>
      <point x="634" y="454" type="line"/>
      <point x="247" y="603" type="line"/>
      <point x="317" y="602" type="line"/>
      <point x="146" y="407" type="line"/>
      <point x="131" y="443" type="line"/>
      <point x="423" y="388" type="line"/>
      <point x="370" y="438" type="line"/>
      <point x="307" y="-34" type="line"/>
      <point x="269" y="85" type="line"/>
    </contour>
    <contour>
      <point x="255" y="796" type="line"/>
      <point x="301" y="685" type="line"/>
      <point x="194" y="817" type="line"/>
      <point x="267" y="770" type="line"/>
      <point x="-47" y="773" type="line"/>
      <point x="23" y="819" type="line"/>
      <point x="6" y="543" type="line"/>
      <point x="-73" y="589" type="line"/>
      <point x="158" y="634" type="line"/>
      <point x="90" y="675" type="line"/>
      <point x="34" y="-59" type="line"/>
      <point x="-5" y="0" type="line"/>
      <point x="264" y="0" type="line"/>
      <point x="220" y="-59" type="line"/>
      <point x="235" y="504" type="line"/>
      <point x="228" y="506" type="line"/>
    </contour>
  </outline>
</glyph>
<glyph name="k" format="2">
  <advance width="563"/>
  <unicode hex="006B"/>
  <anchor x="278" y="0" name="bottom"/>
  <anchor x="166" y="770" name="top"/>
  <outline>
    <contour>
      <point x="255" y="796" type="line"/>
      <point x="301" y="685" type="line"/>
      <point x="194" y="817" type="line"/>
      <point x="267" y="770" type="line"/>
      <point x="-47" y="773" type="line"/>
      <point x="23" y="819" type="line"/>
      <point x="6" y="543" type="line"/>
      <point x="-73" y="589" type="line"/>
      <point x="158" y="634" type="line"/>
      <point x="91" y="675" type="line"/>
      <point x="35" y="-59" type="line"/>
      <point x="-5" y="0" type="line"/>
      <point x="264" y="0" type="line"/>
      <point x="220" y="-59" type="line"/>
      <point x="235" y="504" type="line"/>
      <point x="228" y="506" type="line"/>
    </contour>
    <contour>
      <point x="480" y="414" type="line"/>
      <point x="173" y="216" type="line"/>
      <point x="177" y="269" type="line"/>
      <point x="219" y="131" type="line"/>
      <point x="189" y="159" type="line"/>
      <point x="593" y="395" type="line"/>
      <point x="484" y="267" type="line"/>
      <point x="553" y="519" type="line"/>
      <point x="643" y="436" type="line"/>
      <point x="246" y="604" type="line"/>
      <point x="314" y="603" type="line"/>
      <point x="145" y="399" type="line"/>
      <point x="131" y="449" type="line"/>
      <point x="433" y="383" type="line"/>
      <point x="362" y="420" type="line"/>
      <point x="356" y="284" type="line"/>
    </contour>
    <contour>
      <point x="331" y="0" type="line"/>
      <point x="598" y="-3" type="line"/>
      <point x="529" y="-49" type="line"/>
      <point x="546" y="227" type="line"/>
      <point x="624" y="173" type="line"/>
      <point x="416" y="154" type="line"/>
      <point x="485" y="133" type="line"/>
      <point x="393" y="304" type="line"/>
      <point x="269" y="250" type="line"/>
      <point x="362" y="-50" type="line"/>
    </contour>
  </outline>
</glyph>
<glyph name="m" format="2">
  <advance width="899"/>
  <unicode hex="006D"/>
  <anchor x="468" y="563" name="top"/>
  <outline>
    <contour>
      <point x="596" y="0" type="line"/>
      <point x="921" y="-3" type="line"/>
      <point x="852" y="-49" type="line"/>
      <point x="870" y="227" type="line"/>
      <point x="947" y="177" type="line"/>
      <point x="698" y="142" type="line"/>
      <point x="764" y="102" type="line"/>
      <point x="886" y="536" type="line"/>
      <point x="934" y="453" type="line"/>
      <point x="547" y="602" type="line"/>
      <point x="615" y="601" type="line"/>
      <point x="446" y="397" type="line"/>
      <point x="432" y="442" type="line"/>
      <point x="724" y="387" type="line"/>
      <point x="670" y="438" type="line"/>
      <point x="610" y="-15" type="line"/>
      <point x="584" y="55" type="line"/>
      <point x="661" y="-38" type="line"/>
    </contour>
    <contour>
      <point x="236" y="-59" type="line"/>
      <point x="264" y="568" type="line"/>
      <point x="297" y="477" type="line"/>
      <point x="49" y="601" type="line"/>
      <point x="110" y="623" type="line"/>
      <point x="-10" y="406" type="line"/>
      <point x="-41" y="442" type="line"/>
      <point x="133" y="394" type="line"/>
      <point x="99" y="442" type="line"/>
      <point x="51" y="-59" type="line"/>
      <point x="11" y="0" type="line"/>
      <point x="280" y="0" type="line"/>
    </contour>
    <contour>
      <point x="419" y="391" type="line"/>
      <point x="385" y="442" type="line"/>
      <point x="334" y="-59" type="line"/>
      <point x="296" y="0" type="line"/>
      <point x="564" y="0" type="line"/>
      <point x="520" y="-59" type="line"/>
      <point x="548" y="568" type="line"/>
      <point x="594" y="475" type="line"/>
      <point x="266" y="602" type="line"/>
      <point x="333" y="595" type="line"/>
      <point x="164" y="392" type="line"/>
      <point x="150" y="442" type="line"/>
    </contour>
  </outline>
</glyph>
<glyph name="o" format="2">
  <advance width="551"/>
  <unicode hex="006F"/>
  <anchor x="283" y="563" name="top"/>
  <outline>
    <contour>
      <point x="58" y="571" type="line"/>
      <point x="32" y="5" type="line"/>
      <point x="-64" y="125" type="line"/>
      <point x="367" y="-43" type="line"/>
      <point x="244" y="-50" type="line"/>
      <point x="593" y="111" type="line"/>
      <point x="473" y="-7" type="line"/>
      <point x="536" y="560" type="line"/>
      <point x="603" y="443" type="line"/>
      <point x="162" y="613" type="line"/>
      <point x="316" y="622" type="line"/>
      <point x="-54" y="439" type="line"/>
    </contour>
    <contour>
      <point x="176" y="427" type="line"/>
      <point x="423" y="360" type="line"/>
      <point x="348" y="419" type="line"/>
      <point x="339" y="115" type="line"/>
      <point x="386" y="172" type="line"/>
      <point x="291" y="118" type="line"/>
      <point x="368" y="135" type="line"/>
      <point x="145" y="192" type="line"/>
      <point x="209" y="122" type="line"/>
      <point x="200" y="448" type="line"/>
      <point x="157" y="389" type="line"/>
      <point x="252" y="442" type="line"/>
    </contour>
  </outline>
</glyph>
<glyph name="q" format="2">
  <advance width="548"/>
  <unicode hex="0071"/>
  <outline>
    <contour>
      <point x="288" y="-304" type="line"/>
      <point x="251" y="-207" type="line"/>
      <point x="519" y="-207" type="line"/>
      <point x="476" y="-297" type="line"/>
      <point x="488" y="84" type="line"/>
      <point x="523" y="640" type="line"/>
      <point x="546" y="506" type="line"/>
      <point x="127" y="608" type="line"/>
      <point x="320" y="620" type="line"/>
      <point x="-69" y="439" type="line"/>
      <point x="65" y="608" type="line"/>
      <point x="34" y="14" type="line"/>
      <point x="-56" y="72" type="line"/>
      <point x="308" y="-37" type="line"/>
      <point x="238" y="-36" type="line"/>
      <point x="408" y="156" type="line"/>
      <point x="423" y="119" type="line"/>
      <point x="154" y="147" type="line"/>
      <point x="214" y="104" type="line"/>
      <point x="201" y="485" type="line"/>
      <point x="158" y="394" type="line"/>
      <point x="253" y="448" type="line"/>
      <point x="149" y="433" type="line"/>
      <point x="378" y="409" type="line"/>
      <point x="335" y="510" type="line"/>
      <point x="323" y="73" type="line"/>
      <point x="318" y="60" type="line"/>
      <point x="329" y="56" type="line"/>
    </contour>
  </outline>
</glyph>
<glyph name="s" format="2">
  <advance width="483"/>
  <unicode hex="0073"/>
  <anchor x="238" y="0" name="bottom"/>
  <anchor x="261" y="563" name="top"/>
  <outline>
    <contour>
      <point x="464" y="633" type="line"/>
      <point x="466" y="550" type="line"/>
      <point x="184" y="586" type="line"/>
      <point x="318" y="625" type="line"/>
      <point x="-23" y="437" type="line"/>
      <point x="73" y="589" type="line"/>
      <point x="49" y="212" type="line"/>
      <point x="0" y="275" type="line"/>
      <point x="205" y="193" type="line"/>
      <point x="69" y="202" type="line"/>
      <point x="335" y="224" type="line"/>
      <point x="238" y="263" type="line"/>
      <point x="336" y="177" type="line"/>
      <point x="298" y="282" type="line"/>
      <point x="284" y="78" type="line"/>
      <point x="329" y="150" type="line"/>
      <point x="243" y="106" type="line"/>
      <point x="316" y="118" type="line"/>
      <point x="14" y="183" type="line"/>
      <point x="56" y="232" type="line"/>
      <point x="-21" y="-35" type="line"/>
      <point x="-34" y="22" type="line"/>
      <point x="312" y="-24" type="line"/>
      <point x="243" y="-27" type="line"/>
      <point x="474" y="91" type="line"/>
      <point x="418" y="-23" type="line"/>
      <point x="464" y="358" type="line"/>
      <point x="546" y="250" type="line"/>
      <point x="296" y="368" type="line"/>
      <point x="413" y="356" type="line"/>
      <point x="174" y="326" type="line"/>
      <point x="239" y="308" type="line"/>
      <point x="176" y="358" type="line"/>
      <point x="201" y="302" type="line"/>
      <point x="208" y="448" type="line"/>
      <point x="180" y="417" type="line"/>
      <point x="275" y="470" type="line"/>
      <point x="196" y="444" type="line"/>
      <point x="446" y="377" type="line"/>
      <point x="399" y="364" type="line"/>
    </contour>
  </outline>
</glyph>
<glyph name="w" format="2">
  <advance width="902"/>
  <unicode hex="0077"/>
  <anchor x="497" y="600" name="top"/>
  <outline>
    <contour>
      <point x="600" y="168" type="line"/>
      <point x="542" y="82" type="line"/>
      <point x="597" y="663" type="line"/>
      <point x="639" y="600" type="line"/>
      <point x="353" y="600" type="line"/>
      <point x="400" y="663" type="line"/>
      <point x="375" y="116" type="line"/>
      <point x="442" y="128" type="line"/>
      <point x="233" y="218" type="line"/>
      <point x="255" y="124" type="line"/>
      <point x="307" y="636" type="line"/>
      <point x="353" y="515" type="line"/>
      <point x="239" y="655" type="line"/>
      <point x="302" y="600" type="line"/>
      <point x="-27" y="603" type="line"/>
      <point x="47" y="652" type="line"/>
      <point x="28" y="358" type="line"/>
      <point x="-55" y="411" type="line"/>
      <point x="211" y="449" type="line"/>
      <point x="140" y="491" type="line"/>
      <point x="30" y="19" type="line"/>
      <point x="9" y="148" type="line"/>
      <point x="401" y="-57" type="line"/>
      <point x="279" y="-56" type="line"/>
    </contour>
    <contour>
      <point x="530" y="229" type="line"/>
      <point x="351" y="70" type="line"/>
      <point x="335" y="105" type="line"/>
      <point x="686" y="-57" type="line"/>
      <point x="564" y="-56" type="line"/>
      <point x="885" y="168" type="line"/>
      <point x="827" y="82" type="line"/>
      <point x="882" y="663" type="line"/>
      <point x="934" y="600" type="line"/>
      <point x="648" y="600" type="line"/>
      <point x="685" y="663" type="line"/>
      <point x="660" y="116" type="line"/>
      <point x="727" y="128" type="line"/>
      <point x="467" y="220" type="line"/>
    </contour>
  </outline>
</glyph>
<glyph name="x" format="2">
  <advance width="575"/>
  <unicode hex="0078"/>
  <outline>
    <contour>
      <point x="163" y="413" type="line"/>
      <point x="120" y="444" type="line"/>
      <point x="205" y="248" type="line"/>
      <point x="154" y="266" type="line"/>
      <point x="285" y="266" type="line"/>
      <point x="221" y="299" type="line"/>
      <point x="346" y="-23" type="line"/>
      <point x="318" y="0" type="line"/>
      <point x="617" y="-3" type="line"/>
      <point x="541" y="-49" type="line"/>
      <point x="559" y="227" type="line"/>
      <point x="644" y="172" type="line"/>
      <point x="418" y="149" type="line"/>
      <point x="459" y="119" type="line"/>
      <point x="367" y="331" type="line"/>
      <point x="419" y="318" type="line"/>
      <point x="287" y="318" type="line"/>
      <point x="352" y="279" type="line"/>
      <point x="234" y="587" type="line"/>
      <point x="263" y="563" type="line"/>
      <point x="-27" y="566" type="line"/>
      <point x="49" y="612" type="line"/>
      <point x="31" y="336" type="line"/>
      <point x="-54" y="391" type="line"/>
    </contour>
    <contour>
      <point x="575" y="428" type="line"/>
      <point x="536" y="616" type="line"/>
      <point x="575" y="563" type="line"/>
      <point x="264" y="566" type="line"/>
      <point x="340" y="612" type="line"/>
      <point x="322" y="336" type="line"/>
      <point x="237" y="400" type="line"/>
      <point x="438" y="420" type="line"/>
      <point x="442" y="458" type="line"/>
      <point x="278" y="230" type="line"/>
      <point x="284" y="293" type="line"/>
      <point x="376" y="177" type="line"/>
      <point x="315" y="190" type="line"/>
      <point x="582" y="503" type="line"/>
    </contour>
    <contour>
      <point x="-3" y="135" type="line"/>
      <point x="36" y="-53" type="line"/>
      <point x="-3" y="0" type="line"/>
      <point x="313" y="-3" type="line"/>
      <point x="237" y="-49" type="line"/>
      <point x="254" y="227" type="line"/>
      <point x="331" y="162" type="line"/>
      <point x="111" y="143" type="line"/>
      <point x="113" y="106" type="line"/>
      <point x="286" y="343" type="line"/>
      <point x="281" y="280" type="line"/>
      <point x="189" y="395" type="line"/>
      <point x="249" y="385" type="line"/>
      <point x="-25" y="62" type="line"/>
    </contour>
  </outline>
</glyph>
<glyph name="y" format="2">
  <advance width="629"/>
  <unicode hex="0079"/>
  <anchor x="356" y="600" name="top"/>
  <outline>
    <contour>
      <point x="-19" y="-177" type="line"/>
      <point x="501" y="-260" type="line"/>
      <point x="342" y="-258" type="line"/>
      <point x="566" y="-112" type="line"/>
      <point x="534" y="-226" type="line"/>
      <point x="549" y="89" type="line"/>
      <point x="600" y="663" type="line"/>
      <point x="642" y="600" type="line"/>
      <point x="356" y="600" type="line"/>
      <point x="403" y="663" type="line"/>
      <point x="388" y="81" type="line"/>
      <point x="368" y="64" type="line"/>
      <point x="417" y="48" type="line"/>
      <point x="374" y="103" type="line"/>
      <point x="386" y="-130" type="line"/>
      <point x="420" y="-56" type="line"/>
      <point x="339" y="-111" type="line"/>
      <point x="430" y="-101" type="line"/>
      <point x="126" y="-56" type="line"/>
      <point x="199" y="-110" type="line"/>
      <point x="183" y="-14" type="line"/>
      <point x="118" y="-103" type="line"/>
      <point x="484" y="133" type="line"/>
      <point x="513" y="125" type="line"/>
      <point x="186" y="187" type="line"/>
      <point x="243" y="134" type="line"/>
      <point x="310" y="636" type="line"/>
      <point x="351" y="510" type="line"/>
      <point x="237" y="650" type="line"/>
      <point x="305" y="600" type="line"/>
      <point x="-24" y="603" type="line"/>
      <point x="50" y="652" type="line"/>
      <point x="31" y="358" type="line"/>
      <point x="-52" y="411" type="line"/>
      <point x="214" y="449" type="line"/>
      <point x="143" y="491" type="line"/>
      <point x="17" y="29" type="line"/>
      <point x="-38" y="107" type="line"/>
      <point x="248" y="10" type="line"/>
      <point x="224" y="41" type="line"/>
      <point x="-36" y="-143" type="line"/>
      <point x="48" y="-38" type="line"/>
      <point x="44" y="-251" type="line"/>
    </contour>
  </outline>
</glyph>
<glyph name="z" format="2">
  <advance width="439"/>
  <unicode hex="007A"/>
  <anchor x="242" y="563" name="top"/>
  <outline>
    <contour>
      <point x="-52" y="-30" type="line"/>
      <point x="-75" y="109" type="line"/>
      <point x="101" y="-53" type="line"/>
      <point x="-13" y="0" type="line"/>
      <point x="471" y="-3" type="line"/>
      <point x="407" y="-49" type="line"/>
      <point x="424" y="227" type="line"/>
      <point x="500" y="177" type="line"/>
      <point x="146" y="132" type="line"/>
      <point x="267" y="101" type="line"/>
      <point x="181" y="210" type="line"/>
      <point x="195" y="84" type="line"/>
      <point x="255" y="191" type="line"/>
      <point x="465" y="590" type="line"/>
      <point x="484" y="455" type="line"/>
      <point x="326" y="615" type="line"/>
      <point x="440" y="563" type="line"/>
      <point x="-3" y="566" type="line"/>
      <point x="62" y="612" type="line"/>
      <point x="44" y="336" type="line"/>
      <point x="-32" y="387" type="line"/>
      <point x="265" y="439" type="line"/>
      <point x="199" y="470" type="line"/>
      <point x="273" y="386" type="line"/>
      <point x="263" y="478" type="line"/>
      <point x="216" y="403" type="line"/>
    </contour>
  </outline>
</glyph>
<glyph name="bar" format="2">
  <advance width="227"/>
  <unicode hex="007C"/>
  <outline>
    <contour>
      <point x="72" y="591" type="line"/>
      <point x="49" y="-225" type="line"/>
      <point x="-14" y="-175" type="line"/>
      <point x="220" y="-175" type="line"/>
      <point x="158" y="-225" type="line"/>
      <point x="164" y="591" type="line"/>
      <point x="154" y="184" type="line"/>
      <point x="179" y="894" type="line"/>
      <point x="239" y="845" type="line"/>
      <point x="4" y="845" type="line"/>
      <point x="69" y="894" type="line"/>
      <point x="62" y="184" type="line"/>
    </contour>
  </outline>
</glyph>
<glyph name="exclamdown" format="2">
  <advance width="302"/>
  <unicode hex="00A1"/>
  <outline>
    <contour>
      <point x="252" y="367" type="line"/>
      <point x="269" y="600" type="line"/>
      <point x="304" y="569" type="line"/>
      <point x="50" y="563" type="line"/>
      <point x="99" y="594" type="line"/>
      <point x="89" y="371" type="line"/>
      <point x="52" y="416" type="line"/>
      <point x="273" y="412" type="line"/>
    </contour>
    <contour>
      <point x="285" y="-207" type="line"/>
      <point x="234" y="-305" type="line"/>
      <point x="243" y="362" type="line"/>
      <point x="283" y="338" type="line"/>
      <point x="52" y="341" type="line"/>
      <point x="99" y="377" type="line"/>
      <point x="26" y="-288" type="line"/>
      <point x="-13" y="-207" type="line"/>
    </contour>
  </outline>
</glyph>
<glyph name="brokenbar" format="2">
  <advance width="232"/>
  <unicode hex="00A6"/>
  <outline>
    <contour>
      <point x="227" y="408" type="line"/>
      <point x="169" y="322" type="line"/>
      <point x="173" y="617" type="line"/>
      <point x="186" y="872" type="line"/>
      <point x="236" y="793" type="line"/>
      <point x="39" y="793" type="line"/>
      <point x="78" y="880" type="line"/>
      <point x="74" y="574" type="line"/>
      <point x="62" y="311" type="line"/>
      <point x="29" y="408" type="line"/>
    </contour>
    <contour>
      <point x="213" y="-164" type="line"/>
      <point x="155" y="-250" type="line"/>
      <point x="159" y="74" type="line"/>
      <point x="168" y="323" type="line"/>
      <point x="222" y="244" type="line"/>
      <point x="25" y="244" type="line"/>
      <point x="66" y="330" type="line"/>
      <point x="59" y="30" type="line"/>
      <point x="45" y="-261" type="line"/>
      <point x="15" y="-164" type="line"/>
    </contour>
  </outline>
</glyph>
<glyph name="registered" format="2">
  <advance width="390"/>
  <unicode hex="00AE"/>
  <outline>
    <contour>
      <point x="28" y="831" type="line"/>
      <point x="25" y="496" type="line"/>
      <point x="-28" y="563" type="line"/>
      <point x="251" y="458" type="line"/>
      <point x="183" y="454" type="line"/>
      <point x="412" y="556" type="line"/>
      <point x="350" y="490" type="line"/>
      <point x="374" y="827" type="line"/>
      <point x="412" y="760" type="line"/>
      <point x="140" y="867" type="line"/>
      <point x="226" y="872" type="line"/>
      <point x="-28" y="758" type="line"/>
    </contour>
    <contour>
      <point x="93" y="769" type="line"/>
      <point x="49" y="731" type="line"/>
      <point x="210" y="804" type="line"/>
      <point x="142" y="791" type="line"/>
      <point x="335" y="734" type="line"/>
      <point x="303" y="774" type="line"/>
      <point x="300" y="548" type="line"/>
      <point x="333" y="579" type="line"/>
      <point x="185" y="522" type="line"/>
      <point x="249" y="533" type="line"/>
      <point x="53" y="588" type="line"/>
      <point x="80" y="553" type="line"/>
    </contour>
    <contour>
      <point x="236" y="687" type="line"/>
      <point x="173" y="647" type="line"/>
      <point x="173" y="654" type="line"/>
      <point x="180" y="627" type="line"/>
      <point x="174" y="631" type="line"/>
      <point x="256" y="679" type="line"/>
      <point x="248" y="665" type="line"/>
      <point x="260" y="723" type="line"/>
      <point x="273" y="713" type="line"/>
      <point x="184" y="747" type="line"/>
      <point x="203" y="749" type="line"/>
      <point x="164" y="703" type="line"/>
      <point x="162" y="707" type="line"/>
      <point x="232" y="693" type="line"/>
      <point x="215" y="710" type="line"/>
      <point x="213" y="664" type="line"/>
    </contour>
    <contour>
      <point x="135" y="585" type="line"/>
      <point x="133" y="592" type="line"/>
      <point x="186" y="592" type="line"/>
      <point x="179" y="585" type="line"/>
      <point x="184" y="730" type="line"/>
      <point x="192" y="722" type="line"/>
      <point x="145" y="747" type="line"/>
      <point x="151" y="747" type="line"/>
      <point x="129" y="705" type="line"/>
      <point x="127" y="707" type="line"/>
      <point x="162" y="698" type="line"/>
      <point x="146" y="716" type="line"/>
    </contour>
    <contour>
      <point x="200" y="592" type="line"/>
      <point x="265" y="592" type="line"/>
      <point x="258" y="582" type="line"/>
      <point x="261" y="636" type="line"/>
      <point x="270" y="627" type="line"/>
      <point x="225" y="624" type="line"/>
      <point x="249" y="618" type="line"/>
      <point x="221" y="666" type="line"/>
      <point x="190" y="650" type="line"/>
      <point x="214" y="582" type="line"/>
    </contour>
  </outline>
</glyph>
<glyph name="questiondown" format="2">
  <advance width="462"/>
  <unicode hex="00BF"/>
  <outline>
    <contour>
      <point x="407" y="367" type="line"/>
      <point x="424" y="600" type="line"/>
      <point x="460" y="569" type="line"/>
      <point x="205" y="563" type="line"/>
      <point x="254" y="594" type="line"/>
      <point x="245" y="371" type="line"/>
      <point x="207" y="416" type="line"/>
      <point x="429" y="412" type="line"/>
    </contour>
    <contour>
      <point x="175" y="-100" type="line"/>
      <point x="201" y="159" type="line"/>
      <point x="144" y="59" type="line"/>
      <point x="256" y="127" type="line"/>
      <point x="133" y="100" type="line"/>
      <point x="400" y="78" type="line"/>
      <point x="258" y="51" type="line"/>
      <point x="446" y="166" type="line"/>
      <point x="393" y="80" type="line"/>
      <point x="402" y="362" type="line"/>
      <point x="443" y="338" type="line"/>
      <point x="212" y="342" type="line"/>
      <point x="253" y="368" type="line"/>
      <point x="234" y="171" type="line"/>
      <point x="267" y="247" type="line"/>
      <point x="200" y="201" type="line"/>
      <point x="285" y="212" type="line"/>
      <point x="57" y="248" type="line"/>
      <point x="240" y="274" type="line"/>
      <point x="-42" y="90" type="line"/>
      <point x="48" y="265" type="line"/>
      <point x="0" y="-192" type="line"/>
      <point x="-34" y="-69" type="line"/>
      <point x="256" y="-239" type="line"/>
      <point x="147" y="-227" type="line"/>
      <point x="489" y="-210" type="line"/>
      <point x="448" y="-250" type="line"/>
      <point x="421" y="23" type="line"/>
      <point x="450" y="-27" type="line"/>
      <point x="138" y="-63" type="line"/>
      <point x="263" y="-69" type="line"/>
      <point x="158" y="16" type="line"/>
    </contour>
  </outline>
</glyph>
<glyph name="AE" format="2">
  <advance width="875"/>
  <unicode hex="00C6"/>
  <outline>
    <contour>
      <point x="128" y="577" type="line"/>
      <point x="15" y="-41" type="line"/>
      <point x="-19" y="0" type="line"/>
      <point x="259" y="0" type="line"/>
      <point x="214" y="-41" type="line"/>
      <point x="295" y="642" type="line"/>
      <point x="329" y="653" type="line"/>
      <point x="155" y="558" type="line"/>
      <point x="179" y="619" type="line"/>
      <point x="207" y="526" type="line"/>
      <point x="234" y="585" type="line"/>
      <point x="167" y="551" type="line"/>
      <point x="74" y="494" type="line"/>
    </contour>
    <contour>
      <point x="182" y="335" type="line"/>
      <point x="183" y="233" type="line"/>
      <point x="494" y="312" type="line"/>
      <point x="497" y="416" type="line"/>
    </contour>
    <contour>
      <point x="458" y="678" type="line"/>
      <point x="569" y="667" type="line"/>
      <point x="404" y="793" type="line"/>
      <point x="593" y="742" type="line"/>
      <point x="-26" y="745" type="line"/>
      <point x="44" y="791" type="line"/>
      <point x="26" y="515" type="line"/>
      <point x="-52" y="552" type="line"/>
      <point x="464" y="590" type="line"/>
      <point x="356" y="621" type="line"/>
      <point x="434" y="555" type="line"/>
      <point x="416" y="643" type="line"/>
      <point x="379" y="-51" type="line"/>
      <point x="338" y="80" type="line"/>
      <point x="445" y="-52" type="line"/>
      <point x="349" y="0" type="line"/>
      <point x="902" y="-2" type="line"/>
      <point x="829" y="-49" type="line"/>
      <point x="847" y="227" type="line"/>
      <point x="928" y="184" type="line"/>
      <point x="525" y="158" type="line"/>
      <point x="564" y="123" type="line"/>
      <point x="577" y="329" type="line"/>
      <point x="582" y="419" type="line"/>
      <point x="596" y="640" type="line"/>
      <point x="542" y="541" type="line"/>
      <point x="658" y="606" type="line"/>
      <point x="571" y="582" type="line"/>
      <point x="877" y="556" type="line"/>
      <point x="833" y="536" type="line"/>
      <point x="888" y="808" type="line"/>
      <point x="956" y="742" type="line"/>
      <point x="550" y="752" type="line"/>
      <point x="727" y="808" type="line"/>
    </contour>
    <contour>
      <point x="565" y="439" type="line"/>
      <point x="553" y="312" type="line"/>
      <point x="801" y="309" type="line"/>
      <point x="770" y="277" type="line"/>
      <point x="785" y="512" type="line"/>
      <point x="814" y="455" type="line"/>
    </contour>
  </outline>
</glyph>
<glyph name="Eth" format="2">
  <advance width="662"/>
  <unicode hex="00D0"/>
  <anchor x="359" y="742" name="top"/>
  <outline>
    <contour>
      <point x="277" y="718" type="line"/>
      <point x="183" y="619" type="line"/>
      <point x="211" y="526" type="line"/>
      <point x="238" y="586" type="line"/>
      <point x="171" y="552" type="line"/>
      <point x="78" y="495" type="line"/>
      <point x="92" y="540" type="line"/>
      <point x="86" y="406" type="line"/>
      <point x="82" y="339" type="line"/>
      <point x="48" y="-40" type="line"/>
      <point x="24" y="49" type="line"/>
      <point x="462" y="-38" type="line"/>
      <point x="324" y="-59" type="line"/>
      <point x="718" y="162" type="line"/>
      <point x="570" y="-49" type="line"/>
      <point x="652" y="809" type="line"/>
      <point x="681" y="573" type="line"/>
      <point x="420" y="772" type="line"/>
      <point x="616" y="742" type="line"/>
      <point x="-25" y="745" type="line"/>
      <point x="45" y="791" type="line"/>
      <point x="27" y="515" type="line"/>
      <point x="-51" y="552" type="line"/>
      <point x="487" y="592" type="line"/>
      <point x="366" y="609" type="line"/>
      <point x="461" y="531" type="line"/>
      <point x="439" y="643" type="line"/>
      <point x="421" y="74" type="line"/>
      <point x="452" y="189" type="line"/>
      <point x="372" y="130" type="line"/>
      <point x="506" y="149" type="line"/>
      <point x="215" y="158" type="line"/>
      <point x="255" y="109" type="line"/>
    </contour>
    <contour>
      <point x="31" y="267" type="line"/>
      <point x="-38" y="326" type="line"/>
      <point x="250" y="332" type="line"/>
      <point x="428" y="328" type="line"/>
      <point x="350" y="289" type="line"/>
      <point x="363" y="465" type="line"/>
      <point x="436" y="417" type="line"/>
      <point x="206" y="414" type="line"/>
      <point x="-49" y="420" type="line"/>
      <point x="44" y="465" type="line"/>
    </contour>
  </outline>
</glyph>
<glyph name="Oslash" format="2">
  <advance width="738"/>
  <unicode hex="00D8"/>
  <outline>
    <contour>
      <point x="674" y="888" type="line"/>
      <point x="544" y="701" type="line"/>
      <point x="446" y="591" type="line"/>
      <point x="275" y="347" type="line"/>
      <point x="240" y="284" type="line"/>
      <point x="321" y="310" type="line"/>
      <point x="205" y="321" type="line"/>
      <point x="275" y="362" type="line"/>
      <point x="108" y="124" type="line"/>
      <point x="-23" y="-39" type="line"/>
      <point x="-22" y="29" type="line"/>
      <point x="161" y="-45" type="line"/>
      <point x="72" y="-95" type="line"/>
      <point x="203" y="95" type="line"/>
      <point x="298" y="202" type="line"/>
      <point x="454" y="424" type="line"/>
      <point x="495" y="486" type="line"/>
      <point x="410" y="460" type="line"/>
      <point x="527" y="449" type="line"/>
      <point x="457" y="408" type="line"/>
      <point x="640" y="671" type="line"/>
      <point x="769" y="832" type="line"/>
      <point x="766" y="759" type="line"/>
      <point x="587" y="842" type="line"/>
    </contour>
    <contour>
      <point x="78" y="790" type="line"/>
      <point x="41" y="15" type="line"/>
      <point x="-90" y="159" type="line"/>
      <point x="511" y="-50" type="line"/>
      <point x="345" y="-59" type="line"/>
      <point x="784" y="160" type="line"/>
      <point x="624" y="0" type="line"/>
      <point x="711" y="774" type="line"/>
      <point x="802" y="636" type="line"/>
      <point x="227" y="848" type="line"/>
      <point x="429" y="860" type="line"/>
      <point x="-76" y="610" type="line"/>
    </contour>
    <contour>
      <point x="212" y="627" type="line"/>
      <point x="596" y="549" type="line"/>
      <point x="482" y="626" type="line"/>
      <point x="467" y="117" type="line"/>
      <point x="543" y="247" type="line"/>
      <point x="384" y="157" type="line"/>
      <point x="503" y="178" type="line"/>
      <point x="160" y="237" type="line"/>
      <point x="260" y="128" type="line"/>
      <point x="245" y="675" type="line"/>
      <point x="172" y="555" type="line"/>
      <point x="331" y="644" type="line"/>
    </contour>
  </outline>
</glyph>
<glyph name="Thorn" format="2">
  <advance width="670"/>
  <unicode hex="00DE"/>
  <outline>
    <contour>
      <point x="218" y="308" type="line"/>
      <point x="170" y="195" type="line"/>
      <point x="499" y="67" type="line"/>
      <point x="270" y="41" type="line"/>
      <point x="695" y="241" type="line"/>
      <point x="612" y="106" type="line"/>
      <point x="665" y="741" type="line"/>
      <point x="715" y="592" type="line"/>
      <point x="293" y="707" type="line"/>
      <point x="375" y="706" type="line"/>
      <point x="193" y="503" type="line"/>
      <point x="170" y="514" type="line"/>
      <point x="503" y="481" type="line"/>
      <point x="450" y="645" type="line"/>
      <point x="446" y="237" type="line"/>
      <point x="482" y="329" type="line"/>
      <point x="399" y="264" type="line"/>
      <point x="503" y="284" type="line"/>
    </contour>
    <contour>
      <point x="320" y="186" type="line"/>
      <point x="268" y="274" type="line"/>
      <point x="280" y="550" type="line"/>
      <point x="327" y="597" type="line"/>
      <point x="241" y="612" type="line"/>
      <point x="276" y="568" type="line"/>
      <point x="301" y="844" type="line"/>
      <point x="344" y="705" type="line"/>
      <point x="230" y="845" type="line"/>
      <point x="329" y="790" type="line"/>
      <point x="-36" y="793" type="line"/>
      <point x="38" y="842" type="line"/>
      <point x="19" y="548" type="line"/>
      <point x="-64" y="593" type="line"/>
      <point x="158" y="613" type="line"/>
      <point x="107" y="696" type="line"/>
      <point x="37" y="-83" type="line"/>
      <point x="16" y="0" type="line"/>
      <point x="296" y="0" type="line"/>
      <point x="256" y="-40" type="line"/>
      <point x="264" y="247" type="line"/>
      <point x="220" y="131" type="line"/>
    </contour>
  </outline>
</glyph>
<glyph name="germandbls" format="2">
  <advance width="608"/>
  <unicode hex="00DF"/>
  <outline>
    <contour>
      <point x="283" y="353" type="line"/>
      <point x="313" y="518" type="line"/>
      <point x="295" y="255" type="line"/>
      <point x="268" y="312" type="line"/>
      <point x="485" y="209" type="line"/>
      <point x="439" y="287" type="line"/>
      <point x="425" y="84" type="line"/>
      <point x="470" y="164" type="line"/>
      <point x="385" y="120" type="line"/>
      <point x="511" y="119" type="line"/>
      <point x="262" y="170" type="line"/>
      <point x="298" y="221" type="line"/>
      <point x="239" y="-50" type="line"/>
      <point x="220" y="7" type="line"/>
      <point x="520" y="-19" type="line"/>
      <point x="382" y="-22" type="line"/>
      <point x="613" y="97" type="line"/>
      <point x="557" y="-17" type="line"/>
      <point x="603" y="363" type="line"/>
      <point x="667" y="272" type="line"/>
      <point x="422" y="388" type="line"/>
      <point x="447" y="360" type="line"/>
      <point x="452" y="500" type="line"/>
      <point x="384" y="342" type="line"/>
      <point x="636" y="626" type="line"/>
      <point x="548" y="432" type="line"/>
      <point x="582" y="699" type="line"/>
      <point x="603" y="657" type="line"/>
      <point x="162" y="839" type="line"/>
      <point x="344" y="808" type="line"/>
      <point x="-19" y="627" type="line"/>
      <point x="109" y="747" type="line"/>
      <point x="30" y="-303" type="line"/>
      <point x="-8" y="-207" type="line"/>
      <point x="260" y="-207" type="line"/>
      <point x="215" y="-303" type="line"/>
      <point x="233" y="663" type="line"/>
      <point x="197" y="602" type="line"/>
      <point x="314" y="670" type="line"/>
      <point x="224" y="635" type="line"/>
      <point x="437" y="568" type="line"/>
      <point x="420" y="595" type="line"/>
      <point x="413" y="453" type="line"/>
      <point x="435" y="563" type="line"/>
    </contour>
  </outline>
</glyph>
<glyph name="ae" format="2">
  <advance width="772"/>
  <unicode hex="00E6"/>
  <outline>
    <contour>
      <point x="89" y="198" type="line"/>
      <point x="361" y="374" type="line"/>
      <point x="344" y="432" type="line"/>
      <point x="-23" y="217" type="line"/>
      <point x="73" y="299" type="line"/>
      <point x="4" y="46" type="line"/>
      <point x="-83" y="130" type="line"/>
      <point x="314" y="-37" type="line"/>
      <point x="246" y="-36" type="line"/>
      <point x="490" y="138" type="line"/>
      <point x="504" y="89" type="line"/>
      <point x="128" y="173" type="line"/>
      <point x="205" y="146" type="line"/>
      <point x="214" y="331" type="line"/>
    </contour>
    <contour>
      <point x="358" y="502" type="line"/>
      <point x="521" y="477" type="line"/>
      <point x="321" y="603" type="line"/>
      <point x="485" y="563" type="line"/>
      <point x="16" y="566" type="line"/>
      <point x="85" y="612" type="line"/>
      <point x="68" y="336" type="line"/>
      <point x="-10" y="386" type="line"/>
      <point x="363" y="439" type="line"/>
      <point x="300" y="463" type="line"/>
      <point x="349" y="404" type="line"/>
      <point x="332" y="470" type="line"/>
      <point x="332" y="414" type="line"/>
      <point x="324" y="405" type="line"/>
      <point x="307" y="65" type="line"/>
      <point x="266" y="91" type="line"/>
      <point x="562" y="-38" type="line"/>
      <point x="396" y="-9" type="line"/>
      <point x="757" y="0" type="line"/>
      <point x="707" y="-30" type="line"/>
      <point x="700" y="197" type="line"/>
      <point x="732" y="172" type="line"/>
      <point x="527" y="147" type="line"/>
      <point x="613" y="139" type="line"/>
      <point x="439" y="178" type="line"/>
      <point x="468" y="102" type="line"/>
      <point x="477" y="448" type="line"/>
      <point x="436" y="390" type="line"/>
      <point x="531" y="443" type="line"/>
      <point x="454" y="427" type="line"/>
      <point x="642" y="387" type="line"/>
      <point x="565" y="426" type="line"/>
      <point x="556" y="241" type="line"/>
      <point x="681" y="366" type="line"/>
      <point x="398" y="209" type="line"/>
      <point x="411" y="150" type="line"/>
      <point x="793" y="340" type="line"/>
      <point x="697" y="273" type="line"/>
      <point x="766" y="526" type="line"/>
      <point x="853" y="439" type="line"/>
      <point x="466" y="608" type="line"/>
      <point x="594" y="616" type="line"/>
    </contour>
  </outline>
</glyph>
<glyph name="eth" format="2">
  <advance width="550"/>
  <unicode hex="00F0"/>
  <outline>
    <contour>
      <point x="190" y="486" type="line"/>
      <point x="121" y="502" type="line"/>
      <point x="276" y="679" type="line"/>
      <point x="354" y="765" type="line"/>
      <point x="376" y="710" type="line"/>
      <point x="255" y="815" type="line"/>
      <point x="292" y="822" type="line"/>
      <point x="191" y="707" type="line"/>
      <point x="43" y="547" type="line"/>
      <point x="39" y="615" type="line"/>
    </contour>
    <contour>
      <point x="369" y="468" type="line"/>
      <point x="349" y="518" type="line"/>
      <point x="339" y="115" type="line"/>
      <point x="386" y="172" type="line"/>
      <point x="291" y="118" type="line"/>
      <point x="368" y="135" type="line"/>
      <point x="144" y="192" type="line"/>
      <point x="209" y="122" type="line"/>
      <point x="195" y="504" type="line"/>
      <point x="170" y="355" type="line"/>
      <point x="248" y="416" type="line"/>
      <point x="134" y="386" type="line"/>
      <point x="371" y="374" type="line"/>
      <point x="367" y="553" type="line"/>
      <point x="311" y="457" type="line"/>
      <point x="360" y="482" type="line"/>
      <point x="106" y="545" type="line"/>
      <point x="336" y="590" type="line"/>
      <point x="-72" y="398" type="line"/>
      <point x="58" y="597" type="line"/>
      <point x="32" y="5" type="line"/>
      <point x="-64" y="125" type="line"/>
      <point x="367" y="-43" type="line"/>
      <point x="244" y="-50" type="line"/>
      <point x="592" y="111" type="line"/>
      <point x="473" y="-7" type="line"/>
      <point x="534" y="602" type="line"/>
      <point x="567" y="473" type="line"/>
      <point x="119" y="842" type="line"/>
      <point x="185" y="826" type="line"/>
      <point x="30" y="661" type="line"/>
      <point x="-43" y="750" type="line"/>
    </contour>
  </outline>
</glyph>
<glyph name="Aogonek" format="2">
  <advance width="655"/>
  <unicode hex="0104"/>
  <anchor x="569" y="0" name="ogonek"/>
  <anchor x="349" y="742" name="top"/>
  <outline>
    <contour>
      <point x="122" y="577" type="line"/>
      <point x="9" y="-41" type="line"/>
      <point x="-25" y="0" type="line"/>
      <point x="253" y="0" type="line"/>
      <point x="208" y="-41" type="line"/>
      <point x="289" y="642" type="line"/>
      <point x="323" y="653" type="line"/>
      <point x="149" y="558" type="line"/>
      <point x="174" y="619" type="line"/>
      <point x="202" y="526" type="line"/>
      <point x="228" y="586" type="line"/>
      <point x="161" y="552" type="line"/>
      <point x="68" y="495" type="line"/>
    </contour>
    <contour>
      <point x="176" y="335" type="line"/>
      <point x="177" y="233" type="line"/>
      <point x="488" y="312" type="line"/>
      <point x="491" y="416" type="line"/>
    </contour>
    <contour>
      <point x="641" y="12" type="line"/>
      <point x="620" y="-49" type="line"/>
      <point x="638" y="227" type="line"/>
      <point x="716" y="185" type="line"/>
      <point x="507" y="166" type="line"/>
      <point x="555" y="88" type="line"/>
      <point x="623" y="809" type="line"/>
      <point x="659" y="593" type="line"/>
      <point x="398" y="793" type="line"/>
      <point x="587" y="742" type="line"/>
      <point x="-32" y="745" type="line"/>
      <point x="38" y="791" type="line"/>
      <point x="20" y="515" type="line"/>
      <point x="-58" y="552" type="line"/>
      <point x="458" y="590" type="line"/>
      <point x="350" y="621" type="line"/>
      <point x="428" y="555" type="line"/>
      <point x="410" y="643" type="line"/>
      <point x="373" y="-51" type="line"/>
      <point x="332" y="80" type="line"/>
      <point x="439" y="-52" type="line"/>
      <point x="346" y="0" type="line"/>
      <point x="552" y="-2" type="line"/>
      <point x="505" y="22" type="line"/>
      <point x="533" y="-36" type="line"/>
      <point x="546" y="10" type="line"/>
      <point x="461" y="-38" type="line"/>
      <point x="470" y="14" type="line"/>
      <point x="470" y="-186" type="line"/>
      <point x="456" y="-144" type="line"/>
      <point x="563" y="-208" type="line"/>
      <point x="524" y="-213" type="line"/>
      <point x="658" y="-177" type="line"/>
      <point x="646" y="-192" type="line"/>
      <point x="614" y="-99" type="line"/>
      <point x="639" y="-104" type="line"/>
      <point x="536" y="-139" type="line"/>
      <point x="578" y="-135" type="line"/>
      <point x="519" y="-100" type="line"/>
      <point x="535" y="-129" type="line"/>
      <point x="540" y="6" type="line"/>
      <point x="523" y="-70" type="line"/>
    </contour>
  </outline>
</glyph>
<glyph name="Dcroat" format="2">
  <advance width="643"/>
  <unicode hex="0110"/>
  <anchor x="346" y="742" name="top"/>
  <outline>
    <contour>
      <point x="264" y="718" type="line"/>
      <point x="170" y="619" type="line"/>
      <point x="198" y="526" type="line"/>
      <point x="225" y="586" type="line"/>
      <point x="158" y="552" type="line"/>
      <point x="65" y="495" type="line"/>
      <point x="79" y="540" type="line"/>
      <point x="73" y="406" type="line"/>
      <point x="69" y="339" type="line"/>
      <point x="35" y="-40" type="line"/>
      <point x="11" y="49" type="line"/>
      <point x="449" y="-38" type="line"/>
      <point x="311" y="-59" type="line"/>
      <point x="705" y="162" type="line"/>
      <point x="557" y="-49" type="line"/>
      <point x="639" y="809" type="line"/>
      <point x="668" y="573" type="line"/>
      <point x="407" y="772" type="line"/>
      <point x="603" y="742" type="line"/>
      <point x="-38" y="745" type="line"/>
      <point x="32" y="791" type="line"/>
      <point x="14" y="515" type="line"/>
      <point x="-64" y="552" type="line"/>
      <point x="474" y="592" type="line"/>
      <point x="353" y="609" type="line"/>
      <point x="448" y="531" type="line"/>
      <point x="426" y="643" type="line"/>
      <point x="408" y="74" type="line"/>
      <point x="439" y="189" type="line"/>
      <point x="359" y="130" type="line"/>
      <point x="493" y="149" type="line"/>
      <point x="202" y="158" type="line"/>
      <point x="242" y="109" type="line"/>
    </contour>
    <contour>
      <point x="18" y="267" type="line"/>
      <point x="-51" y="326" type="line"/>
      <point x="237" y="332" type="line"/>
      <point x="415" y="328" type="line"/>
      <point x="337" y="289" type="line"/>
      <point x="350" y="465" type="line"/>
      <point x="423" y="417" type="line"/>
      <point x="193" y="414" type="line"/>
      <point x="-62" y="420" type="line"/>
      <point x="31" y="465" type="line"/>
    </contour>
  </outline>
</glyph>
<glyph name="Eogonek" format="2">
  <advance width="535"/>
  <unicode hex="0118"/>
  <anchor x="447" y="0" name="ogonek"/>
  <anchor x="301" y="790" name="top"/>
  <outline>
    <contour>
      <point x="231" y="467" type="line"/>
      <point x="218" y="332" type="line"/>
      <point x="474" y="329" type="line"/>
      <point x="441" y="295" type="line"/>
      <point x="457" y="545" type="line"/>
      <point x="488" y="485" type="line"/>
    </contour>
    <contour>
      <point x="532" y="18" type="line"/>
      <point x="504" y="-52" type="line"/>
      <point x="523" y="242" type="line"/>
      <point x="609" y="196" type="line"/>
      <point x="188" y="168" type="line"/>
      <point x="230" y="131" type="line"/>
      <point x="244" y="350" type="line"/>
      <point x="249" y="446" type="line"/>
      <point x="264" y="682" type="line"/>
      <point x="207" y="576" type="line"/>
      <point x="330" y="645" type="line"/>
      <point x="238" y="620" type="line"/>
      <point x="555" y="592" type="line"/>
      <point x="508" y="571" type="line"/>
      <point x="567" y="860" type="line"/>
      <point x="639" y="790" type="line"/>
      <point x="215" y="801" type="line"/>
      <point x="404" y="861" type="line"/>
      <point x="-72" y="631" type="line"/>
      <point x="86" y="828" type="line"/>
      <point x="25" y="-45" type="line"/>
      <point x="1" y="0" type="line"/>
      <point x="434" y="-2" type="line"/>
      <point x="387" y="23" type="line"/>
      <point x="417" y="-38" type="line"/>
      <point x="430" y="11" type="line"/>
      <point x="340" y="-40" type="line"/>
      <point x="349" y="15" type="line"/>
      <point x="349" y="-198" type="line"/>
      <point x="335" y="-153" type="line"/>
      <point x="449" y="-221" type="line"/>
      <point x="407" y="-227" type="line"/>
      <point x="550" y="-189" type="line"/>
      <point x="537" y="-205" type="line"/>
      <point x="503" y="-105" type="line"/>
      <point x="529" y="-111" type="line"/>
      <point x="420" y="-148" type="line"/>
      <point x="465" y="-144" type="line"/>
      <point x="402" y="-107" type="line"/>
      <point x="419" y="-137" type="line"/>
      <point x="424" y="6" type="line"/>
      <point x="406" y="-75" type="line"/>
    </contour>
  </outline>
</glyph>
<glyph name="eogonek" format="2">
  <advance width="536"/>
  <unicode hex="0119"/>
  <anchor x="223" y="0" name="bottom"/>
  <anchor x="404" y="0" name="ogonek"/>
  <anchor x="273" y="600" name="top"/>
  <outline>
    <contour>
      <point x="489" y="18" type="line"/>
      <point x="466" y="-32" type="line"/>
      <point x="459" y="210" type="line"/>
      <point x="493" y="183" type="line"/>
      <point x="274" y="157" type="line"/>
      <point x="366" y="148" type="line"/>
      <point x="180" y="182" type="line"/>
      <point x="211" y="109" type="line"/>
      <point x="221" y="477" type="line"/>
      <point x="177" y="415" type="line"/>
      <point x="278" y="472" type="line"/>
      <point x="196" y="455" type="line"/>
      <point x="397" y="412" type="line"/>
      <point x="315" y="454" type="line"/>
      <point x="305" y="257" type="line"/>
      <point x="438" y="390" type="line"/>
      <point x="137" y="223" type="line"/>
      <point x="151" y="160" type="line"/>
      <point x="557" y="362" type="line"/>
      <point x="455" y="291" type="line"/>
      <point x="529" y="560" type="line"/>
      <point x="621" y="468" type="line"/>
      <point x="209" y="647" type="line"/>
      <point x="346" y="656" type="line"/>
      <point x="-47" y="468" type="line"/>
      <point x="72" y="608" type="line"/>
      <point x="24" y="5" type="line"/>
      <point x="-19" y="104" type="line"/>
      <point x="311" y="-40" type="line"/>
      <point x="135" y="-10" type="line"/>
      <point x="367" y="-2" type="line"/>
      <point x="344" y="23" type="line"/>
      <point x="374" y="-38" type="line"/>
      <point x="386" y="12" type="line"/>
      <point x="298" y="-43" type="line"/>
      <point x="306" y="15" type="line"/>
      <point x="306" y="-198" type="line"/>
      <point x="292" y="-153" type="line"/>
      <point x="406" y="-221" type="line"/>
      <point x="364" y="-227" type="line"/>
      <point x="507" y="-189" type="line"/>
      <point x="494" y="-205" type="line"/>
      <point x="460" y="-105" type="line"/>
      <point x="486" y="-111" type="line"/>
      <point x="377" y="-148" type="line"/>
      <point x="422" y="-144" type="line"/>
      <point x="359" y="-107" type="line"/>
      <point x="376" y="-137" type="line"/>
      <point x="381" y="6" type="line"/>
      <point x="363" y="-75" type="line"/>
    </contour>
  </outline>
</glyph>
<glyph name="idotless" format="2">
  <advance width="329"/>
  <unicode hex="0131"/>
  <anchor x="213" y="0" name="ogonek"/>
  <anchor x="173" y="600" name="top"/>
  <outline>
    <contour>
      <point x="245" y="129" type="line"/>
      <point x="287" y="660" type="line"/>
      <point x="324" y="515" type="line"/>
      <point x="210" y="655" type="line"/>
      <point x="272" y="600" type="line"/>
      <point x="-53" y="603" type="line"/>
      <point x="28" y="652" type="line"/>
      <point x="9" y="358" type="line"/>
      <point x="-81" y="407" type="line"/>
      <point x="165" y="455" type="line"/>
      <point x="103" y="491" type="line"/>
      <point x="44" y="-5" type="line"/>
      <point x="22" y="79" type="line"/>
      <point x="278" y="-39" type="line"/>
      <point x="214" y="-63" type="line"/>
      <point x="342" y="169" type="line"/>
      <point x="367" y="132" type="line"/>
      <point x="192" y="179" type="line"/>
    </contour>
  </outline>
</glyph>
<glyph name="IJ" format="2">
  <advance width="833"/>
  <unicode hex="0132"/>
  <anchor x="619" y="790" name="top"/>
  <outline>
    <component base="I"/>
    <contour>
      <point x="321" y="216" type="line"/>
      <point x="360" y="246" type="line"/>
      <point x="297" y="-48" type="line"/>
      <point x="247" y="30" type="line"/>
      <point x="699" y="-35" type="line"/>
      <point x="533" y="-46" type="line"/>
      <point x="898" y="165" type="line"/>
      <point x="754" y="38" type="line"/>
      <point x="811" y="844" type="line"/>
      <point x="854" y="705" type="line"/>
      <point x="740" y="845" type="line"/>
      <point x="839" y="790" type="line"/>
      <point x="329" y="793" type="line"/>
      <point x="403" y="842" type="line"/>
      <point x="384" y="548" type="line"/>
      <point x="301" y="593" type="line"/>
      <point x="672" y="619" type="line"/>
      <point x="599" y="696" type="line"/>
      <point x="574" y="108" type="line"/>
      <point x="677" y="238" type="line"/>
      <point x="518" y="148" type="line"/>
      <point x="598" y="150" type="line"/>
    </contour>
  </outline>
</glyph>
<glyph name="lslash" format="2">
  <advance width="332"/>
  <unicode hex="0142"/>
  <outline>
    <component base="l"/>
    <contour>
      <point x="29" y="224" type="line"/>
      <point x="-79" y="255" type="line"/>
      <point x="236" y="376" type="line"/>
      <point x="489" y="464" type="line"/>
      <point x="362" y="376" type="line"/>
      <point x="311" y="556" type="line"/>
      <point x="465" y="555" type="line"/>
      <point x="170" y="446" type="line"/>
      <point x="-125" y="344" type="line"/>
      <point x="-30" y="427" type="line"/>
    </contour>
  </outline>
</glyph>
<glyph name="OE" format="2">
  <advance width="934"/>
  <unicode hex="0152"/>
  <outline>
    <contour>
      <point x="590" y="467" type="line"/>
      <point x="577" y="332" type="line"/>
      <point x="833" y="329" type="line"/>
      <point x="800" y="295" type="line"/>
      <point x="816" y="545" type="line"/>
      <point x="847" y="485" type="line"/>
    </contour>
    <contour>
      <point x="200" y="627" type="line"/>
      <point x="565" y="546" type="line"/>
      <point x="451" y="626" type="line"/>
      <point x="436" y="117" type="line"/>
      <point x="522" y="247" type="line"/>
      <point x="363" y="157" type="line"/>
      <point x="482" y="178" type="line"/>
      <point x="158" y="240" type="line"/>
      <point x="248" y="128" type="line"/>
      <point x="233" y="675" type="line"/>
      <point x="160" y="555" type="line"/>
      <point x="319" y="644" type="line"/>
    </contour>
    <contour>
      <point x="954" y="592" type="line"/>
      <point x="907" y="571" type="line"/>
      <point x="966" y="860" type="line"/>
      <point x="1038" y="790" type="line"/>
      <point x="614" y="801" type="line"/>
      <point x="803" y="861" type="line"/>
      <point x="460" y="695" type="line"/>
      <point x="629" y="688" type="line"/>
      <point x="196" y="848" type="line"/>
      <point x="398" y="860" type="line"/>
      <point x="-88" y="610" type="line"/>
      <point x="66" y="790" type="line"/>
      <point x="29" y="15" type="line"/>
      <point x="-102" y="159" type="line"/>
      <point x="410" y="-18" type="line"/>
      <point x="270" y="0" type="line"/>
      <point x="980" y="0" type="line"/>
      <point x="903" y="-52" type="line"/>
      <point x="922" y="242" type="line"/>
      <point x="1008" y="197" type="line"/>
      <point x="587" y="168" type="line"/>
      <point x="629" y="131" type="line"/>
      <point x="643" y="350" type="line"/>
      <point x="648" y="446" type="line"/>
      <point x="663" y="682" type="line"/>
      <point x="606" y="576" type="line"/>
      <point x="729" y="645" type="line"/>
      <point x="637" y="620" type="line"/>
    </contour>
  </outline>
</glyph>
<glyph name="oe" format="2">
  <advance width="799"/>
  <unicode hex="0153"/>
  <outline>
    <contour>
      <point x="176" y="427" type="line"/>
      <point x="423" y="360" type="line"/>
      <point x="348" y="419" type="line"/>
      <point x="339" y="115" type="line"/>
      <point x="386" y="172" type="line"/>
      <point x="291" y="118" type="line"/>
      <point x="368" y="135" type="line"/>
      <point x="145" y="192" type="line"/>
      <point x="209" y="122" type="line"/>
      <point x="200" y="448" type="line"/>
      <point x="157" y="389" type="line"/>
      <point x="252" y="442" type="line"/>
    </contour>
    <contour>
      <point x="331" y="74" type="line"/>
      <point x="588" y="-38" type="line"/>
      <point x="423" y="-9" type="line"/>
      <point x="783" y="0" type="line"/>
      <point x="733" y="-30" type="line"/>
      <point x="727" y="197" type="line"/>
      <point x="759" y="172" type="line"/>
      <point x="553" y="147" type="line"/>
      <point x="639" y="139" type="line"/>
      <point x="465" y="178" type="line"/>
      <point x="494" y="102" type="line"/>
      <point x="503" y="448" type="line"/>
      <point x="462" y="390" type="line"/>
      <point x="557" y="443" type="line"/>
      <point x="480" y="427" type="line"/>
      <point x="669" y="387" type="line"/>
      <point x="592" y="426" type="line"/>
      <point x="582" y="241" type="line"/>
      <point x="707" y="366" type="line"/>
      <point x="424" y="209" type="line"/>
      <point x="438" y="150" type="line"/>
      <point x="819" y="340" type="line"/>
      <point x="723" y="273" type="line"/>
      <point x="793" y="526" type="line"/>
      <point x="879" y="439" type="line"/>
      <point x="492" y="608" type="line"/>
      <point x="621" y="616" type="line"/>
      <point x="384" y="502" type="line"/>
      <point x="477" y="492" type="line"/>
      <point x="162" y="613" type="line"/>
      <point x="316" y="622" type="line"/>
      <point x="-54" y="439" type="line"/>
      <point x="58" y="571" type="line"/>
      <point x="32" y="5" type="line"/>
      <point x="-64" y="125" type="line"/>
      <point x="367" y="-43" type="line"/>
      <point x="244" y="-50" type="line"/>
      <point x="529" y="84" type="line"/>
    </contour>
  </outline>
</glyph>
<glyph name="Schwa" format="2">
  <advance width="563"/>
  <unicode hex="018F"/>
  <outline>
    <contour>
      <point x="356" y="162" type="line"/>
      <point x="106" y="215" type="line"/>
      <point x="185" y="188" type="line"/>
      <point x="198" y="422" type="line"/>
      <point x="56" y="257" type="line"/>
      <point x="429" y="464" type="line"/>
      <point x="412" y="561" type="line"/>
      <point x="-92" y="310" type="line"/>
      <point x="43" y="421" type="line"/>
      <point x="-36" y="63" type="line"/>
      <point x="-172" y="168" type="line"/>
      <point x="341" y="-54" type="line"/>
      <point x="169" y="-66" type="line"/>
      <point x="658" y="168" type="line"/>
      <point x="511" y="-4" type="line"/>
      <point x="571" y="735" type="line"/>
      <point x="623" y="612" type="line"/>
      <point x="214" y="792" type="line"/>
      <point x="432" y="754" type="line"/>
      <point x="-52" y="742" type="line"/>
      <point x="14" y="780" type="line"/>
      <point x="23" y="481" type="line"/>
      <point x="-19" y="553" type="line"/>
      <point x="260" y="585" type="line"/>
      <point x="151" y="592" type="line"/>
      <point x="380" y="542" type="line"/>
      <point x="356" y="607" type="line"/>
      <point x="343" y="159" type="line"/>
      <point x="383" y="203" type="line"/>
      <point x="258" y="131" type="line"/>
    </contour>
  </outline>
</glyph>
<glyph name="jdotless" format="2">
  <advance width="296"/>
  <unicode hex="0237"/>
  <anchor x="160" y="563" name="top"/>
  <outline>
    <contour>
      <point x="271" y="-44" type="line"/>
      <point x="228" y="-120" type="line"/>
      <point x="267" y="610" type="line"/>
      <point x="301" y="484" type="line"/>
      <point x="194" y="615" type="line"/>
      <point x="253" y="563" type="line"/>
      <point x="-53" y="566" type="line"/>
      <point x="23" y="612" type="line"/>
      <point x="6" y="336" type="line"/>
      <point x="-79" y="382" type="line"/>
      <point x="152" y="427" type="line"/>
      <point x="95" y="452" type="line"/>
      <point x="52" y="-177" type="line"/>
      <point x="81" y="-116" type="line"/>
      <point x="-43" y="-254" type="line"/>
      <point x="-23" y="-172" type="line"/>
      <point x="78" y="-258" type="line"/>
      <point x="-33" y="-281" type="line"/>
    </contour>
  </outline>
</glyph>
<glyph name="acutecomb" format="2">
  <advance width="306"/>
  <unicode hex="0301"/>
  <anchor x="130" y="600" name="_top"/>
  <outline>
    <contour>
      <point x="280" y="829" type="line"/>
      <point x="88" y="849" type="line"/>
      <point x="130" y="886" type="line"/>
      <point x="26" y="642" type="line"/>
      <point x="19" y="710" type="line"/>
      <point x="175" y="645" type="line"/>
      <point x="75" y="613" type="line"/>
      <point x="282" y="853" type="line"/>
      <point x="271" y="781" type="line"/>
      <point x="238" y="873" type="line"/>
    </contour>
  </outline>
</glyph>
<glyph name="tildecomb" format="2">
  <advance width="420"/>
  <unicode hex="0303"/>
  <anchor x="211" y="563" name="_top"/>
  <outline>
    <contour>
      <point x="195" y="715" type="line"/>
      <point x="123" y="721" type="line"/>
      <point x="288" y="589" type="line"/>
      <point x="229" y="602" type="line"/>
      <point x="389" y="728" type="line"/>
      <point x="389" y="694" type="line"/>
      <point x="297" y="790" type="line"/>
      <point x="363" y="825" type="line"/>
      <point x="226" y="685" type="line"/>
      <point x="291" y="678" type="line"/>
      <point x="134" y="810" type="line"/>
      <point x="192" y="797" type="line"/>
      <point x="32" y="671" type="line"/>
      <point x="32" y="704" type="line"/>
      <point x="124" y="608" type="line"/>
      <point x="58" y="574" type="line"/>
    </contour>
  </outline>
</glyph>
<glyph name="macroncomb" format="2">
  <advance width="412"/>
  <unicode hex="0304"/>
  <anchor x="206" y="563" name="_top"/>
  <outline>
    <contour>
      <point x="46" y="593" type="line"/>
      <point x="-26" y="652" type="line"/>
      <point x="261" y="657" type="line"/>
      <point x="440" y="654" type="line"/>
      <point x="353" y="615" type="line"/>
      <point x="366" y="791" type="line"/>
      <point x="447" y="742" type="line"/>
      <point x="218" y="741" type="line"/>
      <point x="-37" y="746" type="line"/>
      <point x="59" y="791" type="line"/>
    </contour>
  </outline>
</glyph>
<glyph name="dotaccentcomb" format="2">
  <advance width="276"/>
  <unicode hex="0307"/>
  <anchor x="128" y="563" name="_top"/>
  <outline>
    <contour>
      <point x="196" y="583" type="line"/>
      <point x="231" y="816" type="line"/>
      <point x="263" y="785" type="line"/>
      <point x="9" y="779" type="line"/>
      <point x="57" y="810" type="line"/>
      <point x="48" y="587" type="line"/>
      <point x="11" y="632" type="line"/>
      <point x="232" y="624" type="line"/>
    </contour>
  </outline>
</glyph>
<glyph name="ringcomb" format="2">
  <advance width="283"/>
  <unicode hex="030A"/>
  <anchor x="138" y="563" name="_top"/>
  <outline>
    <contour>
      <point x="51" y="789" type="line"/>
      <point x="50" y="623" type="line"/>
      <point x="26" y="656" type="line"/>
      <point x="172" y="597" type="line"/>
      <point x="136" y="595" type="line"/>
      <point x="250" y="653" type="line"/>
      <point x="223" y="620" type="line"/>
      <point x="235" y="787" type="line"/>
      <point x="250" y="753" type="line"/>
      <point x="108" y="813" type="line"/>
      <point x="153" y="816" type="line"/>
      <point x="26" y="752" type="line"/>
    </contour>
    <contour>
      <point x="99" y="745" type="line"/>
      <point x="183" y="730" type="line"/>
      <point x="167" y="744" type="line"/>
      <point x="169" y="666" type="line"/>
      <point x="183" y="687" type="line"/>
      <point x="127" y="664" type="line"/>
      <point x="184" y="671" type="line"/>
      <point x="100" y="685" type="line"/>
      <point x="109" y="670" type="line"/>
      <point x="117" y="756" type="line"/>
      <point x="92" y="723" type="line"/>
      <point x="149" y="747" type="line"/>
    </contour>
  </outline>
</glyph>
<glyph name="hungarumlautcomb" format="2">
  <advance width="493"/>
  <unicode hex="030B"/>
  <anchor x="205" y="563" name="_top"/>
  <outline>
    <contour>
      <point x="470" y="780" type="line"/>
      <point x="289" y="793" type="line"/>
      <point x="329" y="831" type="line"/>
      <point x="214" y="598" type="line"/>
      <point x="204" y="654" type="line"/>
      <point x="373" y="609" type="line"/>
      <point x="270" y="571" type="line"/>
      <point x="466" y="801" type="line"/>
      <point x="456" y="735" type="line"/>
      <point x="426" y="822" type="line"/>
    </contour>
    <contour>
      <point x="283" y="780" type="line"/>
      <point x="103" y="793" type="line"/>
      <point x="142" y="831" type="line"/>
      <point x="27" y="598" type="line"/>
      <point x="17" y="654" type="line"/>
      <point x="186" y="609" type="line"/>
      <point x="83" y="571" type="line"/>
      <point x="279" y="801" type="line"/>
      <point x="269" y="735" type="line"/>
      <point x="239" y="822" type="line"/>
    </contour>
  </outline>
</glyph>
<glyph name="cedillacomb" format="2">
  <advance width="299"/>
  <unicode hex="0327"/>
  <anchor x="134" y="0" name="_bottom"/>
  <outline>
    <contour>
      <point x="59" y="-88" type="line"/>
      <point x="199" y="-120" type="line"/>
      <point x="170" y="-86" type="line"/>
      <point x="171" y="-167" type="line"/>
      <point x="186" y="-136" type="line"/>
      <point x="122" y="-164" type="line"/>
      <point x="161" y="-164" type="line"/>
      <point x="68" y="-114" type="line"/>
      <point x="101" y="-108" type="line"/>
      <point x="45" y="-197" type="line"/>
      <point x="36" y="-184" type="line"/>
      <point x="173" y="-239" type="line"/>
      <point x="135" y="-233" type="line"/>
      <point x="250" y="-174" type="line"/>
      <point x="232" y="-223" type="line"/>
      <point x="253" y="-52" type="line"/>
      <point x="257" y="-96" type="line"/>
      <point x="186" y="-22" type="line"/>
      <point x="226" y="-44" type="line"/>
      <point x="132" y="-40" type="line"/>
      <point x="156" y="-81" type="line"/>
      <point x="191" y="71" type="line"/>
      <point x="208" y="49" type="line"/>
      <point x="58" y="49" type="line"/>
      <point x="103" y="74" type="line"/>
      <point x="82" y="-121" type="line"/>
    </contour>
  </outline>
</glyph>
<glyph name="Germandbls" format="2">
  <advance width="657"/>
  <unicode hex="1E9E"/>
  <outline>
    <contour>
      <point x="205" y="769" type="line"/>
      <point x="384" y="804" type="line"/>
      <point x="-63" y="588" type="line"/>
      <point x="84" y="700" type="line"/>
      <point x="15" y="-78" type="line"/>
      <point x="-5" y="0" type="line"/>
      <point x="258" y="0" type="line"/>
      <point x="218" y="-78" type="line"/>
      <point x="248" y="642" type="line"/>
      <point x="199" y="545" type="line"/>
      <point x="314" y="609" type="line"/>
      <point x="228" y="591" type="line"/>
      <point x="535" y="563" type="line"/>
      <point x="448" y="637" type="line"/>
      <point x="439" y="436" type="line"/>
      <point x="477" y="485" type="line"/>
      <point x="292" y="351" type="line"/>
      <point x="339" y="454" type="line"/>
      <point x="324" y="277" type="line"/>
      <point x="279" y="336" type="line"/>
      <point x="537" y="250" type="line"/>
      <point x="446" y="372" type="line"/>
      <point x="429" y="108" type="line"/>
      <point x="465" y="177" type="line"/>
      <point x="354" y="120" type="line"/>
      <point x="476" y="149" type="line"/>
      <point x="273" y="185" type="line"/>
      <point x="309" y="277" type="line"/>
      <point x="247" y="-78" type="line"/>
      <point x="210" y="3" type="line"/>
      <point x="476" y="-8" type="line"/>
      <point x="383" y="-26" type="line"/>
      <point x="726" y="129" type="line"/>
      <point x="591" y="-23" type="line"/>
      <point x="642" y="470" type="line"/>
      <point x="711" y="323" type="line"/>
      <point x="471" y="410" type="line"/>
      <point x="464" y="390" type="line"/>
      <point x="688" y="543" type="line"/>
      <point x="583" y="419" type="line"/>
      <point x="640" y="735" type="line"/>
      <point x="730" y="674" type="line"/>
    </contour>
  </outline>
</glyph>
<glyph name="endash" format="2">
  <advance width="551"/>
  <unicode hex="2013"/>
  <outline>
    <contour>
      <point x="31" y="212" type="line"/>
      <point x="-46" y="278" type="line"/>
      <point x="337" y="284" type="line"/>
      <point x="597" y="280" type="line"/>
      <point x="505" y="213" type="line"/>
      <point x="519" y="423" type="line"/>
      <point x="605" y="374" type="line"/>
      <point x="291" y="372" type="line"/>
      <point x="-58" y="378" type="line"/>
      <point x="45" y="423" type="line"/>
    </contour>
  </outline>
</glyph>
<glyph name="quoteright" format="2">
  <advance width="238"/>
  <unicode hex="2019"/>
  <outline>
    <contour>
      <point x="151" y="593" type="line"/>
      <point x="104" y="618" type="line"/>
      <point x="95" y="461" type="line"/>
      <point x="70" y="523" type="line"/>
      <point x="186" y="508" type="line"/>
      <point x="144" y="454" type="line"/>
      <point x="218" y="763" type="line"/>
      <point x="257" y="669" type="line"/>
      <point x="154" y="804" type="line"/>
      <point x="210" y="743" type="line"/>
      <point x="-6" y="742" type="line"/>
      <point x="42" y="773" type="line"/>
      <point x="33" y="549" type="line"/>
      <point x="-5" y="590" type="line"/>
    </contour>
  </outline>
</glyph>
<glyph name=".notdef" format="2">
  <advance width="661"/>
  <outline>
    <contour>
      <point x="123" y="686" type="line"/>
      <point x="555" y="686" type="line"/>
      <point x="512" y="702" type="line"/>
      <point x="506" y="118" type="line"/>
      <point x="516" y="500" type="line"/>
      <point x="497" y="-33" type="line"/>
      <point x="538" y="-13" type="line"/>
      <point x="106" y="-13" type="line"/>
      <point x="149" y="-29" type="line"/>
      <point x="155" y="555" type="line"/>
      <point x="146" y="173" type="line"/>
      <point x="165" y="706" type="line"/>
    </contour>
    <contour>
      <point x="655" y="770" type="line"/>
      <point x="5" y="770" type="line"/>
      <point x="66" y="839" type="line"/>
      <point x="59" y="173" type="line"/>
      <point x="69" y="555" type="line"/>
      <point x="49" y="-137" type="line"/>
      <point x="7" y="-97" type="line"/>
      <point x="657" y="-97" type="line"/>
      <point x="596" y="-166" type="line"/>
      <point x="602" y="500" type="line"/>
      <point x="593" y="118" type="line"/>
      <point x="612" y="810" type="line"/>
    </contour>
    <contour>
      <point x="360" y="322" type="line"/>
      <point x="347" y="209" type="line"/>
      <point x="331" y="224" type="line"/>
      <point x="454" y="227" type="line"/>
      <point x="430" y="212" type="line"/>
      <point x="435" y="320" type="line"/>
      <point x="453" y="299" type="line"/>
      <point x="346" y="300" type="line"/>
    </contour>
    <contour>
      <point x="228" y="322" type="line"/>
      <point x="215" y="209" type="line"/>
      <point x="199" y="224" type="line"/>
      <point x="322" y="227" type="line"/>
      <point x="299" y="212" type="line"/>
      <point x="303" y="320" type="line"/>
      <point x="321" y="299" type="line"/>
      <point x="214" y="300" type="line"/>
    </contour>
    <contour>
      <point x="367" y="448" type="line"/>
      <point x="407" y="433" type="line"/>
      <point x="267" y="434" type="line"/>
      <point x="302" y="448" type="line"/>
      <point x="180" y="375" type="line"/>
      <point x="169" y="422" type="line"/>
      <point x="239" y="319" type="line"/>
      <point x="210" y="327" type="line"/>
      <point x="299" y="393" type="line"/>
      <point x="267" y="388" type="line"/>
      <point x="405" y="384" type="line"/>
      <point x="366" y="396" type="line"/>
      <point x="455" y="324" type="line"/>
      <point x="424" y="320" type="line"/>
      <point x="503" y="419" type="line"/>
      <point x="485" y="371" type="line"/>
    </contour>
  </outline>
</glyph>
<glyph name="dieresiscomb.alt" format="2">
  <advance width="445"/>
  <anchor x="225" y="563" name="_top"/>
  <outline>
    <contour>
      <point x="181" y="594" type="line"/>
      <point x="211" y="808" type="line"/>
      <point x="242" y="779" type="line"/>
      <point x="9" y="774" type="line"/>
      <point x="57" y="804" type="line"/>
      <point x="48" y="598" type="line"/>
      <point x="11" y="639" type="line"/>
      <point x="214" y="635" type="line"/>
    </contour>
    <contour>
      <point x="369" y="594" type="line"/>
      <point x="399" y="808" type="line"/>
      <point x="430" y="779" type="line"/>
      <point x="196" y="774" type="line"/>
      <point x="245" y="804" type="line"/>
      <point x="236" y="598" type="line"/>
      <point x="198" y="639" type="line"/>
      <point x="402" y="635" type="line"/>
    </contour>
  </outline>
</glyph>
<glyph name="sectionbowl" format="2">
  <advance width="563"/>
  <outline>
    <contour>
      <point x="283" y="142" type="line"/>
      <point x="395" y="66" type="line"/>
      <point x="351" y="180" type="line"/>
      <point x="338" y="-21" type="line"/>
      <point x="383" y="50" type="line"/>
      <point x="298" y="6" type="line"/>
      <point x="332" y="10" type="line"/>
      <point x="54" y="48" type="line"/>
      <point x="90" y="100" type="line"/>
      <point x="41" y="-173" type="line"/>
      <point x="23" y="-134" type="line"/>
      <point x="329" y="-147" type="line"/>
      <point x="298" y="-152" type="line"/>
      <point x="529" y="-34" type="line"/>
      <point x="491" y="-121" type="line"/>
      <point x="536" y="256" type="line"/>
      <point x="570" y="146" type="line"/>
      <point x="306" y="257" type="line"/>
      <point x="433" y="230" type="line"/>
      <point x="155" y="212" type="line"/>
      <point x="244" y="204" type="line"/>
      <point x="177" y="259" type="line"/>
      <point x="190" y="201" type="line"/>
      <point x="201" y="404" type="line"/>
      <point x="176" y="323" type="line"/>
      <point x="277" y="391" type="line"/>
      <point x="237" y="442" type="line"/>
      <point x="12" y="318" type="line"/>
      <point x="46" y="406" type="line"/>
      <point x="16" y="111" type="line"/>
      <point x="-2" y="201" type="line"/>
      <point x="184" y="85" type="line"/>
      <point x="19" y="91" type="line"/>
      <point x="398" y="121" type="line"/>
    </contour>
  </outline>
</glyph>
